<svg xmlns="http://www.w3.org/2000/svg" xmlns:xlink="http://www.w3.org/1999/xlink" fill="none" version="1.1" width="9.000004768371582" height="5.500002384185791" viewBox="0 0 9.000004768371582 5.500002384185791"><g><path d="M0.20285,1.26296C-0.0804482,0.960774,-0.0651376,0.486147,0.237047,0.20285C0.51176,-0.0546938,0.928987,-0.0654535,1.21542,0.161754C1.21542,0.161754,1.29716,0.237047,1.29716,0.237047C1.29716,0.237047,4.5,3.654,4.5,3.654C4.5,3.654,7.70285,0.237047,7.70285,0.237047C7.96039,-0.0376663,8.37606,-0.0752936,8.67654,0.132981C8.67654,0.132981,8.76296,0.20285,8.76296,0.20285C9.03767,0.460393,9.0753,0.87606,8.86702,1.17654C8.86702,1.17654,8.79716,1.26296,8.79716,1.26296C8.79716,1.26296,5.04716,5.26296,5.04716,5.26296C4.77779,5.55028,4.33867,5.57641,4.03844,5.34132C4.03844,5.34132,3.95285,5.26296,3.95285,5.26296C3.95285,5.26296,0.20285,1.26296,0.20285,1.26296Z" fill="#666666" fill-opacity="1"/></g></svg>