<svg xmlns="http://www.w3.org/2000/svg" xmlns:xlink="http://www.w3.org/1999/xlink" fill="none" version="1.1" width="60" height="60" viewBox="0 0 60 60"><defs><mask id="master_svg0_0_3928"><g><path d="M43.6113,24.1933C43.6113,24.1933,28.252299999999998,39.641400000000004,28.252299999999998,39.641400000000004C28.2,39.7188,28.1417,39.7926,28.073,39.8611C27.471040000000002,40.463,26.49516,40.463,25.892760000000003,39.8611C25.892760000000003,39.8611,18.263652,32.2348,18.263652,32.2348C17.662116,31.6328,17.662116,30.65737,18.263652,30.05629C18.86559,29.45431,19.84148,29.45431,20.44347,30.05629C20.44347,30.05629,26.959870000000002,36.5694,26.959870000000002,36.5694C26.959870000000002,36.5694,41.4311,22.013944,41.4311,22.013944C42.033500000000004,21.412019,43.009,21.412019,43.6113,22.013944C44.212900000000005,22.61587,44.212900000000005,23.59127,43.6113,24.1933Z" fill-rule="evenodd" fill="#FFFFFF" fill-opacity="1"/></g></mask></defs><g><g><path d="M60,30Q60,30.7365,59.9639,31.472Q59.9277,32.2076,59.8555,32.9405Q59.7833,33.6734,59.6753,34.4019Q59.5672,35.1304,59.4235,35.8527Q59.2799,36.575,59.1009,37.2894Q58.922,38.0038,58.7082,38.7085Q58.4944,39.4133,58.2463,40.1067Q57.9982,40.8001,57.7164,41.4805Q57.4345,42.1609,57.1197,42.8266Q56.8048,43.4924,56.4576,44.1419Q56.1105,44.7914,55.7318,45.4231Q55.3532,46.0548,54.9441,46.6671Q54.5349,47.2794,54.0962,47.871Q53.6575,48.4625,53.1903,49.0318Q52.7231,49.6011,52.2285,50.1468Q51.734,50.6924,51.2132,51.2132Q50.6924,51.734,50.1468,52.2285Q49.6011,52.7231,49.0318,53.1903Q48.4625,53.6575,47.871,54.0962Q47.2794,54.5349,46.6671,54.9441Q46.0548,55.3532,45.4231,55.7319Q44.7914,56.1105,44.1419,56.4576Q43.4924,56.8048,42.8266,57.1197Q42.1609,57.4345,41.4805,57.7164Q40.8001,57.9982,40.1067,58.2463Q39.4133,58.4944,38.7085,58.7082Q38.0038,58.922,37.2894,59.1009Q36.575,59.2799,35.8527,59.4236Q35.1304,59.5672,34.4019,59.6753Q33.6734,59.7833,32.9405,59.8555Q32.2076,59.9277,31.472,59.9639Q30.7365,60,30,60Q29.2635,60,28.528,59.9639Q27.7924,59.9277,27.0595,59.8555Q26.3266,59.7833,25.5981,59.6753Q24.8696,59.5672,24.1473,59.4235Q23.425,59.2799,22.7106,59.1009Q21.9962,58.922,21.2915,58.7082Q20.5867,58.4944,19.8933,58.2463Q19.1999,57.9982,18.5195,57.7164Q17.8391,57.4345,17.1733,57.1197Q16.5076,56.8048,15.8581,56.4576Q15.2086,56.1105,14.5769,55.7318Q13.9452,55.3532,13.3329,54.9441Q12.7205,54.5349,12.129,54.0962Q11.5375,53.6575,10.9682,53.1903Q10.3989,52.7231,9.85323,52.2285Q9.30755,51.734,8.7868,51.2132Q8.26604,50.6924,7.77146,50.1468Q7.27689,49.6011,6.80969,49.0318Q6.34248,48.4625,5.90377,47.871Q5.46507,47.2794,5.05591,46.6671Q4.64676,46.0548,4.26814,45.4231Q3.88953,44.7914,3.54236,44.1419Q3.1952,43.4924,2.88032,42.8266Q2.56544,42.1609,2.28361,41.4805Q2.00178,40.8001,1.75368,40.1067Q1.50557,39.4133,1.29179,38.7085Q1.07801,38.0038,0.899062,37.2894Q0.720117,36.575,0.576441,35.8527Q0.432766,35.1304,0.324705,34.4019Q0.216644,33.6734,0.144458,32.9405Q0.0722726,32.2076,0.0361363,31.472Q0,30.7365,0,30Q0,29.2635,0.0361363,28.528Q0.0722726,27.7924,0.144458,27.0595Q0.216644,26.3266,0.324705,25.5981Q0.432766,24.8696,0.576441,24.1473Q0.720117,23.425,0.899062,22.7106Q1.07801,21.9962,1.29179,21.2915Q1.50557,20.5867,1.75368,19.8933Q2.00178,19.1999,2.28361,18.5195Q2.56544,17.8391,2.88032,17.1733Q3.1952,16.5076,3.54236,15.8581Q3.88953,15.2086,4.26814,14.5769Q4.64676,13.9452,5.05591,13.3329Q5.46507,12.7205,5.90377,12.129Q6.34248,11.5375,6.80969,10.9682Q7.27689,10.3989,7.77146,9.85323Q8.26604,9.30755,8.7868,8.7868Q9.30755,8.26604,9.85323,7.77146Q10.3989,7.27689,10.9682,6.80969Q11.5375,6.34248,12.129,5.90377Q12.7205,5.46507,13.3329,5.05591Q13.9452,4.64676,14.5769,4.26814Q15.2086,3.88953,15.8581,3.54236Q16.5076,3.1952,17.1733,2.88032Q17.8391,2.56544,18.5195,2.28361Q19.1999,2.00178,19.8933,1.75368Q20.5867,1.50557,21.2915,1.29179Q21.9962,1.07801,22.7106,0.899062Q23.425,0.720117,24.1473,0.576441Q24.8696,0.432766,25.5981,0.324705Q26.3266,0.216644,27.0595,0.144458Q27.7924,0.0722726,28.528,0.0361363Q29.2635,0,30,0Q30.7365,0,31.472,0.0361363Q32.2076,0.0722726,32.9405,0.144458Q33.6734,0.216644,34.4019,0.324705Q35.1304,0.432766,35.8527,0.576441Q36.575,0.720117,37.2894,0.899062Q38.0038,1.07801,38.7085,1.29179Q39.4133,1.50557,40.1067,1.75368Q40.8001,2.00178,41.4805,2.28361Q42.1609,2.56544,42.8266,2.88032Q43.4924,3.1952,44.1419,3.54236Q44.7914,3.88953,45.4231,4.26814Q46.0548,4.64676,46.6671,5.05591Q47.2794,5.46507,47.871,5.90377Q48.4625,6.34248,49.0318,6.80969Q49.6011,7.27689,50.1468,7.77146Q50.6924,8.26604,51.2132,8.7868Q51.734,9.30755,52.2285,9.85323Q52.7231,10.3989,53.1903,10.9682Q53.6575,11.5375,54.0962,12.129Q54.5349,12.7205,54.9441,13.3329Q55.3532,13.9452,55.7319,14.5769Q56.1105,15.2086,56.4576,15.8581Q56.8048,16.5076,57.1197,17.1733Q57.4345,17.8391,57.7164,18.5195Q57.9982,19.1999,58.2463,19.8933Q58.4944,20.5867,58.7082,21.2915Q58.922,21.9962,59.1009,22.7106Q59.2799,23.425,59.4236,24.1473Q59.5672,24.8696,59.6753,25.5981Q59.7833,26.3266,59.8555,27.0595Q59.9277,27.7924,59.9639,28.528Q60,29.2635,60,30Z" fill="#40AE36" fill-opacity="1"/></g><g><path d="M43.6113,24.1933C43.6113,24.1933,28.252299999999998,39.641400000000004,28.252299999999998,39.641400000000004C28.2,39.7188,28.1417,39.7926,28.073,39.8611C27.471040000000002,40.463,26.49516,40.463,25.892760000000003,39.8611C25.892760000000003,39.8611,18.263652,32.2348,18.263652,32.2348C17.662116,31.6328,17.662116,30.65737,18.263652,30.05629C18.86559,29.45431,19.84148,29.45431,20.44347,30.05629C20.44347,30.05629,26.959870000000002,36.5694,26.959870000000002,36.5694C26.959870000000002,36.5694,41.4311,22.013944,41.4311,22.013944C42.033500000000004,21.412019,43.009,21.412019,43.6113,22.013944C44.212900000000005,22.61587,44.212900000000005,23.59127,43.6113,24.1933Z" fill-rule="evenodd" fill="#FFFFFF" fill-opacity="1"/><path d="M44.5313,23.10358Q44.5313,22.271313,43.9429,21.682595L43.9427,21.682358Q43.3536,21.09375,42.5212,21.09375Q41.688900000000004,21.09375,41.0987,21.683451L26.95882,35.9056L20.77492,29.72483Q20.18614,29.13606,19.35354,29.13606Q18.520937,29.13606,17.932322,29.72471Q17.34375,30.312829999999998,17.34375,31.14521Q17.34375,31.9774,17.932257,32.5663L25.56144,40.1926Q26.15051,40.7813,26.98305,40.7813Q27.8157,40.7813,28.404,40.193Q28.5151,40.082300000000004,28.614,39.942499999999995L43.9429,24.52462Q44.5312,23.93583,44.5313,23.10358ZM43.2798,22.345293L43.28,22.34553Q43.5937,22.65963,43.5937,23.10358Q43.5937,23.54773,43.2798,23.86197L27.8889,39.3422L27.8642,39.378699999999995Q27.80433,39.467,27.74211,39.5291Q27.427390000000003,39.8437,26.98305,39.8437Q26.53862,39.8437,26.22409,39.5295L18.595046,31.9033Q18.28125,31.5893,18.28125,31.14521Q18.28125,30.70137,18.594982,30.38787Q18.90928,30.07356,19.35354,30.07356Q19.79782,30.07356,20.11202,30.38775L26.96091,37.2332L41.7635,22.344437Q42.077,22.03125,42.5212,22.03125Q42.9653,22.03125,43.2798,22.345293Z" fill-rule="evenodd" fill="#FFFFFF" fill-opacity="1"/></g><g mask="url(#master_svg0_0_3928)"></g></g></svg>