<svg xmlns="http://www.w3.org/2000/svg" xmlns:xlink="http://www.w3.org/1999/xlink" fill="none" version="1.1" width="13.97998046875" height="15.1370849609375" viewBox="0 0 13.97998046875 15.1370849609375"><g><g><path d="M10.661124570922851,15.137076230621338L3.3206845709228516,15.137076230621338C2.3831035709228514,15.137076230621338,1.6202945709228516,14.365776230621337,1.6202945709228516,13.422576230621338L1.6202945709228516,3.074192230621338C1.6202945709228516,2.7560662306213377,1.8733505709228515,2.498976230621338,2.1864845709228513,2.498976230621338L11.797194570922851,2.498976230621338C12.110294570922852,2.498976230621338,12.363294570922852,2.7560662306213377,12.363294570922852,3.074192230621338L12.363294570922852,13.420676230621337C12.36149457092285,14.367676230621338,11.600524570922852,15.137076230621338,10.661124570922851,15.137076230621338ZM10.661124570922851,14.137076230621338Q10.948424570922851,14.137076230621338,11.153494570922852,13.930176230621338Q11.362764570922852,13.718976230621339,11.363334570922852,13.420676230621337L11.363334570922852,3.498976230621338L2.6202945709228516,3.498976230621338L2.6202945709228516,13.422576230621338Q2.6202945709228516,13.718776230621337,2.8292245709228516,13.929676230621338Q3.0347545709228516,14.137076230621338,3.3206845709228516,14.137076230621338L10.661124570922851,14.137076230621338Z" fill-rule="evenodd" fill="#999999" fill-opacity="1"/></g><g><path d="M13.413808492730558,3.5000243186950684C13.413808492730558,3.5000243186950684,0.5661984927305579,3.5000243186950684,0.5661984927305579,3.5000243186950684C0.2530644927305579,3.5000243186950684,0.000008492730557918549,3.276551318695068,0.000008492730557918549,3.0000243186950684C0.000008492730557918549,2.723497318695068,0.2530644927305579,2.5000243186950684,0.5661984927305579,2.5000243186950684C0.5661984927305579,2.5000243186950684,13.413808492730558,2.5000243186950684,13.413808492730558,2.5000243186950684C13.726908492730558,2.5000243186950684,13.980008492730558,2.723497318695068,13.980008492730558,3.0000243186950684C13.981808492730558,3.273336318695068,13.726908492730558,3.5000243186950684,13.413808492730558,3.5000243186950684Z" fill-rule="evenodd" fill="#999999" fill-opacity="1"/></g><g><path d="M5.413662433624268,12.466303074645996C5.137135433624268,12.466303074645996,4.913662433624268,12.209213074645996,4.913662433624268,11.891083074645996C4.913662433624268,11.891083074645996,4.913662433624268,5.744969074645996,4.913662433624268,5.744969074645996C4.913662433624268,5.426843074645996,5.137135433624268,5.169753074645996,5.413662433624268,5.169753074645996C5.690189433624267,5.169753074645996,5.913662433624268,5.426843074645996,5.913662433624268,5.744969074645996C5.913662433624268,5.744969074645996,5.913662433624268,11.887383074645996,5.913662433624268,11.887383074645996C5.9120544336242675,12.205513074645996,5.688582433624267,12.466303074645996,5.413662433624268,12.466303074645996Z" fill="#999999" fill-opacity="1"/></g><g><path d="M8.49090176171875,12.466303074645996C8.21437676171875,12.466303074645996,7.99090576171875,12.209213074645996,7.99090576171875,11.891083074645996C7.99090576171875,11.891083074645996,7.99090576171875,5.744969074645996,7.99090576171875,5.744969074645996C7.99090576171875,5.426843074645996,8.21437676171875,5.169753074645996,8.49090176171875,5.169753074645996C8.76742676171875,5.169753074645996,8.99089676171875,5.426843074645996,8.99089676171875,5.744969074645996C8.99089676171875,5.744969074645996,8.99089676171875,11.887383074645996,8.99089676171875,11.887383074645996C8.99250576171875,12.205513074645996,8.76581876171875,12.466303074645996,8.49090176171875,12.466303074645996Z" fill="#999999" fill-opacity="1"/></g><g><path d="M9.82367690826416,3.486464437904358L4.15631490826416,3.486464437904358C3.9760809082641604,3.486464437904358,3.80677090826416,3.3995344379043577,3.70117890826416,3.251564437904358C3.59376649826416,3.103604437904358,3.56281720826416,2.914944437904358,3.61561310826416,2.741084437904358L4.32198490826416,0.4069294379043579C4.39662690826416,0.16463643790435792,4.61509690826416,0.000024437904357910156,4.86268690826416,0.000024437904357910156L9.113666908264161,0.000024437904357910156C9.36307690826416,0.000024437904357910156,9.58154690826416,0.16463643790435792,9.65436690826416,0.4069294379043579L10.364376908264159,2.741084437904358C10.41717690826416,2.914944437904358,10.38622690826416,3.105454437904358,10.27881690826416,3.251564437904358C10.173216908264159,3.3995344379043577,10.00572690826416,3.486464437904358,9.82367690826416,3.486464437904358ZM4.737456908264161,2.486464437904358L9.24168690826416,2.486464437904358L8.78953690826416,1.000024437904358L5.18728690826416,1.000024437904358L4.737456908264161,2.486464437904358Z" fill-rule="evenodd" fill="#999999" fill-opacity="1"/></g></g></svg>