<svg xmlns="http://www.w3.org/2000/svg" xmlns:xlink="http://www.w3.org/1999/xlink" fill="none" version="1.1" width="5.500002384185791" height="9.000004768371582" viewBox="0 0 5.500002384185791 9.000004768371582"><g><path d="M1.26296,0.20285C0.960774,-0.0804482,0.486147,-0.0651376,0.20285,0.237047C-0.0546938,0.51176,-0.0654535,0.928987,0.161754,1.21542C0.161754,1.21542,0.237047,1.29716,0.237047,1.29716C0.237047,1.29716,3.654,4.5,3.654,4.5C3.654,4.5,0.237047,7.70285,0.237047,7.70285C-0.0376663,7.96039,-0.0752936,8.37606,0.132981,8.67654C0.132981,8.67654,0.20285,8.76296,0.20285,8.76296C0.460393,9.03767,0.87606,9.0753,1.17654,8.86702C1.17654,8.86702,1.26296,8.79716,1.26296,8.79716C1.26296,8.79716,5.26296,5.04716,5.26296,5.04716C5.55028,4.77779,5.57641,4.33867,5.34132,4.03844C5.34132,4.03844,5.26296,3.95285,5.26296,3.95285C5.26296,3.95285,1.26296,0.20285,1.26296,0.20285Z" fill="#666666" fill-opacity="1"/></g></svg>