<svg xmlns="http://www.w3.org/2000/svg" xmlns:xlink="http://www.w3.org/1999/xlink" fill="none" version="1.1" width="24" height="24" viewBox="0 0 24 24"><g><g></g><g><path d="M17.508899904632568,3.546387666213989C17.16399990463257,3.2722579662139895,16.65779990463257,3.2835399662139895,16.32549990463257,3.5901266662139895L16.24159990463257,3.678618666213989L16.172299904632567,3.7750746662139893C15.965399904632568,4.108193666213989,16.00089990463257,4.548969666213989,16.286599904632567,4.846679666213989L18.15309990463257,6.790999666213989L16.470599904632568,6.791219666213989L16.257899904632566,6.795659666213989C13.507899904632568,6.910649666213989,11.32069990463257,9.24626966621399,11.32069990463257,12.102959666213989L11.32069990463257,16.52729966621399L11.327739904632569,16.63879966621399C11.383499904632568,17.07679966621399,11.763569904632568,17.41469966621399,12.222899904632568,17.41469966621399C12.720509904632568,17.41469966621399,13.125099904632568,17.018099666213992,13.125099904632568,16.52729966621399L13.125099904632568,12.102959666213989L13.130099904632567,11.90850966621399C13.225699904632569,10.041869666213989,14.689799904632569,8.56599966621399,16.470599904632568,8.56599966621399L20.24629990463257,8.56599966621399L20.356599904632567,8.55981966621399C21.07339990463257,8.47824966621399,21.420699904632567,7.60899966621399,20.902399904632567,7.06934966621399L17.598799904632568,3.6282186662139893L17.508899904632568,3.546387666213989ZM12.623679904632569,5.255049666213989C12.623679904632569,4.787009666213989,12.23773990463257,4.408839666213989,11.763159904632568,4.408839666213989L5.605259904632568,4.408839666213989L5.437489904632568,4.413769666213989C3.994549904632568,4.498809666213989,2.8499999046325684,5.67355966621399,2.8499999046325684,7.11161966621399L2.8499999046325684,18.94719966621399L2.8550311046325683,19.11189966621399C2.9418213046325685,20.52849966621399,4.140609904632568,21.64999966621399,5.605259904632568,21.64999966621399L18.394699904632567,21.64999966621399L18.562499904632567,21.64509966621399C20.00549990463257,21.55999966621399,21.14999990463257,20.38529966621399,21.14999990463257,18.94719966621399L21.14999990463257,13.14545966621399L21.143299904632567,13.03917966621399C21.09009990463257,12.62147966621399,20.72749990463257,12.299249666213989,20.289499904632567,12.299249666213989C19.81489990463257,12.299249666213989,19.42889990463257,12.67741966621399,19.42889990463257,13.14545966621399L19.42889990463257,18.94719966621399L19.42289990463257,19.05719966621399C19.36679990463257,19.56289966621399,18.928499904632567,19.95759966621399,18.394699904632567,19.95759966621399L5.605259904632568,19.95759966621399L5.492459904632568,19.95169966621399C4.973819904632569,19.89669966621399,4.571049904632568,19.46739966621399,4.571049904632568,18.94719966621399L4.571049904632568,7.11161966621399L4.577109904632568,7.001649666213989C4.633189904632569,6.49590966621399,5.071529904632568,6.1012596662139895,5.605259904632568,6.1012596662139895L11.763159904632568,6.1012596662139895L11.870969904632569,6.094679666213989C12.294829904632568,6.04254966621399,12.623679904632569,5.687089666213989,12.623679904632569,5.255049666213989Z" fill-rule="evenodd" fill="#666666" fill-opacity="1"/></g></g></svg>