<svg xmlns="http://www.w3.org/2000/svg" xmlns:xlink="http://www.w3.org/1999/xlink" fill="none" version="1.1" width="24" height="24" viewBox="0 0 24 24"><g><g transform="matrix(0,1,-1,0,23.999999999999986,-24.000000000000014)" style="opacity:0.00009999999747378752;"><path d="M48,-1.4210854715202004e-14C48,-1.4210854715202004e-14,48,23.999999999999986,48,23.999999999999986C48,23.999999999999986,24,23.999999999999986,24,23.999999999999986C24,23.999999999999986,24,-1.4210854715202004e-14,24,-1.4210854715202004e-14C24,-1.4210854715202004e-14,48,-1.4210854715202004e-14,48,-1.4210854715202004e-14Z" fill-rule="evenodd" fill="#000000" fill-opacity="1"/></g><g><path d="M16.41422,5.800000190734863L15,4.385780190734863L14.29289,5.092893190734864L7.58579,11.800000190734863L14.29289,18.507100190734864L15,19.214200190734864L16.41421,17.800000190734863L10.41421,11.800000190734863L15.70711,6.507107190734863L16.41421,5.800000190734863L16.41422,5.800000190734863Z" fill-rule="evenodd" fill="#333333" fill-opacity="1"/></g></g></svg>