<svg xmlns="http://www.w3.org/2000/svg" xmlns:xlink="http://www.w3.org/1999/xlink" fill="none" version="1.1" width="17.928466796875" height="18.800048828125" viewBox="0 0 17.928466796875 18.800048828125"><g><g><path d="M9.229022345240116,0.0038099982882881162L8.965192345240116,-0.000004641711711883545C4.0234223452401165,-0.000004641711711883545,0.017573445240116118,4.005845358288288,0.017573445240116118,8.947615358288289L0.01699034524011612,9.546105358288289C0.0057006552401161195,9.646635358288288,-0.00009765475988388062,9.748825358288288,-0.00009765475988388062,9.852375358288288L-0.00009765475988388062,12.566695358288289C-0.00009765475988388062,14.065695358288288,1.2151323452401162,15.280995358288289,2.714192345240116,15.280995358288289C4.213242345240116,15.280995358288289,5.428472345240116,14.065695358288288,5.428472345240116,12.566695358288289L5.428472345240116,9.852375358288288C5.428472345240116,9.132505358288288,5.142502345240116,8.442115358288287,4.633482345240116,7.933085358288288C4.124452345240116,7.424055358288288,3.434062345240116,7.138095358288288,2.714192345240116,7.138095358288288C2.398952345240116,7.138095358288288,2.096262345240116,7.191835358288288,1.8148123452401161,7.291245358288288C2.548302345240116,4.112015358288288,5.347532345240116,1.7229153582882881,8.722972345240116,1.6134453582882882L8.965192345240116,1.6095153582882882C12.449102345240115,1.6095153582882882,15.365902345240116,4.037385358288288,16.116802345240117,7.292555358288288C15.829502345240115,7.191265358288288,15.524602345240115,7.138095358288288,15.214202345240116,7.138095358288288C13.715102345240116,7.138095358288288,12.499902345240116,8.353315358288288,12.499902345240116,9.852375358288288L12.499902345240116,12.566695358288289C12.499902345240116,13.767595358288288,13.279902345240115,14.786395358288289,14.361702345240117,15.143895358288288C13.984002345240116,16.351095358288287,12.862002345240116,17.19049535828829,11.575402345240116,17.19049535828829L9.869952345240117,17.19049535828829L9.770142345240115,17.096695358288287L9.763682345240117,16.989395358288288C9.713612345240117,16.58939535828829,9.372052345240116,16.285695358288287,8.965192345240116,16.285695358288287C8.520732345240116,16.285695358288287,8.160432345240116,16.64599535828829,8.160432345240116,17.090495358288287L8.160432345240116,17.899995358288287C8.160432345240116,18.397095358288286,8.563372345240117,18.79999535828829,9.060432345240116,18.79999535828829L11.575402345240116,18.79999535828829C13.743502345240117,18.79999535828829,15.607402345240116,17.26339535828829,16.021002345240117,15.135195358288287L16.016902345240116,15.160295358288288C17.124102345240114,14.817995358288288,17.928502345240116,13.786295358288289,17.928502345240116,12.566695358288289L17.928502345240116,9.852375358288288C17.928502345240116,9.758785358288288,17.923602345240116,9.665705358288289,17.914102345240117,9.573445358288287L17.912802345240117,8.947615358288289C17.912802345240117,4.094085358288288,14.048802345240116,0.1433593582882881,9.229022345240116,0.0038099982882881162ZM2.714192345240116,8.638175358288288C2.0854723452401163,8.638175358288288,1.568352345240116,9.115995358288288,1.5061723452401161,9.728315358288288L1.4999023452401161,9.852465358288288L1.4999023452401161,12.566795358288289C1.4999023452401161,13.237395358288287,2.043552345240116,13.780995358288289,2.714192345240116,13.780995358288289C3.342902345240116,13.780995358288289,3.8600223452401163,13.303195358288288,3.922202345240116,12.690895358288287L3.9284723452401162,12.566795358288289L3.9284723452401162,9.852465358288288C3.9284723452401162,9.530415358288288,3.800542345240116,9.221555358288288,3.572822345240116,8.993835358288289C3.3450923452401162,8.766115358288289,3.036232345240116,8.638175358288288,2.714192345240116,8.638175358288288ZM15.214202345240116,8.638175358288288C14.585502345240116,8.638175358288288,14.068402345240116,9.115995358288288,14.006202345240116,9.728315358288288L13.999902345240116,9.852465358288288L13.999902345240116,12.566795358288289C13.999902345240116,13.237395358288287,14.543602345240116,13.780995358288289,15.214202345240116,13.780995358288289C15.842902345240116,13.780995358288289,16.360002345240115,13.303195358288288,16.422202345240116,12.690895358288287L16.428502345240116,12.566795358288289L16.428502345240116,9.852465358288288C16.428502345240116,9.530415358288288,16.300502345240115,9.221555358288288,16.072802345240117,8.993835358288289C15.845102345240116,8.766115358288289,15.536202345240117,8.638175358288288,15.214202345240116,8.638175358288288Z" fill-rule="evenodd" fill="#333333" fill-opacity="1"/></g></g></svg>