<svg xmlns="http://www.w3.org/2000/svg" xmlns:xlink="http://www.w3.org/1999/xlink" fill="none" version="1.1" width="24" height="24" viewBox="0 0 24 24"><g><g></g><g><path d="M5.8482199999999995,5.03637C5.744149999999999,4.437945,5.2166,4.000347397,4.59911,4.000258384L2.806682,4L2.6615830000000003,4.0127764C2.285322,4.0799216,2,4.403703,2,4.793005C2,5.2310300000000005,2.361164,5.58613,2.806682,5.58613L3.7754700000000003,5.58613C4.08423,5.58613,4.348050000000001,5.8049,4.40011,6.10412L6.27604,16.8853C6.38017,17.4837,6.90781,17.921300000000002,7.52532,17.921300000000002L19.539,17.921300000000002C20.1674,17.921300000000002,20.7009,17.468600000000002,20.7928,16.8574L21.9864,8.92173C21.9954,8.86138,22,8.80045,22,8.73944C22,8.05123,21.4326,7.493320000000001,20.7326,7.493320000000001L6.81004,7.493320000000001C6.50126,7.493320000000001,6.23743,7.274509999999999,6.18539,6.9752600000000005L5.8482199999999995,5.03637ZM19.6003,9.07959L7.30266,9.07959C6.95267,9.07959,6.66895,9.35854,6.66895,9.70265L6.67802,9.80772L7.72375,15.8171C7.77582,16.116300000000003,8.039629999999999,16.3351,8.34839,16.3351L18.6977,16.3351C19.0119,16.3351,19.2787,16.1087,19.3246,15.803L20.2272,9.79368C20.2783,9.45326,20.0391,9.13655,19.6929,9.086269999999999L19.6003,9.07959ZM8.92319,22Q8.99122,22,9.058910000000001,21.9935Q9.12661,21.9869,9.19332,21.9739Q9.26004,21.9608,9.32513,21.9414Q9.39022,21.922,9.45307,21.8964Q9.51591,21.8708,9.5759,21.8393Q9.63589,21.8078,9.692450000000001,21.7706Q9.74901,21.7334,9.801590000000001,21.691Q9.85417,21.6486,9.90227,21.6013Q9.95037,21.554,9.99352,21.5023Q10.03667,21.4506,10.07446,21.395Q10.11226,21.3394,10.14432,21.2804Q10.17639,21.2214,10.20242,21.1597Q10.22845,21.0979,10.24819,21.0339Q10.26794,20.9699,10.28121,20.9043Q10.29448,20.8387,10.30115,20.7721Q10.30782,20.7056,10.30782,20.6387Q10.30782,20.5718,10.30115,20.5053Q10.29448,20.4387,10.28121,20.3731Q10.26794,20.3075,10.24819,20.2435Q10.22845,20.1795,10.20242,20.1177Q10.17639,20.0559,10.14432,19.997Q10.11226,19.938000000000002,10.07446,19.8824Q10.03667,19.8268,9.99352,19.775100000000002Q9.95037,19.723399999999998,9.90227,19.676099999999998Q9.85417,19.6288,9.801590000000001,19.586399999999998Q9.74901,19.5439,9.692450000000001,19.5068Q9.63589,19.4696,9.5759,19.4381Q9.51591,19.406599999999997,9.45307,19.381Q9.39022,19.3554,9.32513,19.336Q9.26004,19.316499999999998,9.19332,19.3035Q9.12661,19.2905,9.058910000000001,19.2839Q8.99122,19.2773,8.92319,19.2773Q8.855170000000001,19.2773,8.78748,19.2839Q8.71978,19.2905,8.65307,19.3035Q8.58635,19.316499999999998,8.52126,19.336Q8.45617,19.3554,8.39332,19.381Q8.33048,19.406599999999997,8.270489999999999,19.4381Q8.2105,19.4696,8.15394,19.5068Q8.097380000000001,19.5439,8.0448,19.586399999999998Q7.99222,19.6288,7.94412,19.676099999999998Q7.89602,19.723399999999998,7.85287,19.775100000000002Q7.80972,19.8268,7.77192,19.8824Q7.73413,19.938000000000002,7.70207,19.997Q7.67,20.0559,7.64397,20.1177Q7.61794,20.1795,7.5982,20.2435Q7.57845,20.3075,7.56518,20.3731Q7.55191,20.4387,7.54524,20.5053Q7.53857,20.5718,7.53857,20.6387Q7.53857,20.7056,7.54524,20.7721Q7.55191,20.8387,7.56518,20.9043Q7.57845,20.9699,7.5982,21.0339Q7.61794,21.0979,7.64397,21.1597Q7.67,21.2214,7.70207,21.2804Q7.73413,21.3394,7.77192,21.395Q7.80972,21.4506,7.85287,21.5023Q7.89602,21.554,7.94412,21.6013Q7.99222,21.6486,8.0448,21.691Q8.097380000000001,21.7334,8.15394,21.7706Q8.2105,21.8078,8.270489999999999,21.8393Q8.33048,21.8708,8.39332,21.8964Q8.45617,21.922,8.52126,21.9414Q8.58635,21.9608,8.65307,21.9739Q8.71978,21.9869,8.78748,21.9935Q8.855170000000001,22,8.92319,22ZM18.1539,22Q18.2219,22,18.2896,21.9935Q18.3573,21.9869,18.424,21.9739Q18.4907,21.9608,18.5558,21.9414Q18.6209,21.922,18.6838,21.8964Q18.7466,21.8708,18.8066,21.8393Q18.8666,21.8078,18.9232,21.7706Q18.9797,21.7334,19.0323,21.691Q19.0849,21.6486,19.133,21.6013Q19.1811,21.554,19.2242,21.5023Q19.2674,21.4506,19.3052,21.395Q19.343,21.3394,19.375,21.2804Q19.4071,21.2214,19.4331,21.1597Q19.4592,21.0979,19.4789,21.0339Q19.4987,20.9699,19.5119,20.9043Q19.5252,20.8387,19.5319,20.7721Q19.5385,20.7056,19.5385,20.6387Q19.5385,20.5718,19.5319,20.5053Q19.5252,20.4387,19.5119,20.3731Q19.4987,20.3075,19.4789,20.2435Q19.4592,20.1795,19.4331,20.1177Q19.4071,20.0559,19.375,19.997Q19.343,19.938000000000002,19.3052,19.8824Q19.2674,19.8268,19.2242,19.775100000000002Q19.1811,19.723399999999998,19.133,19.676099999999998Q19.0849,19.6288,19.0323,19.586399999999998Q18.9797,19.5439,18.9232,19.5068Q18.8666,19.4696,18.8066,19.4381Q18.7466,19.406599999999997,18.6838,19.381Q18.6209,19.3554,18.5558,19.336Q18.4907,19.316499999999998,18.424,19.3035Q18.3573,19.2905,18.2896,19.2839Q18.2219,19.2773,18.1539,19.2773Q18.0859,19.2773,18.0182,19.2839Q17.950499999999998,19.2905,17.8838,19.3035Q17.8171,19.316499999999998,17.752000000000002,19.336Q17.6869,19.3554,17.624000000000002,19.381Q17.5612,19.406599999999997,17.5012,19.4381Q17.441200000000002,19.4696,17.384700000000002,19.5068Q17.3281,19.5439,17.2755,19.586399999999998Q17.2229,19.6288,17.174799999999998,19.676099999999998Q17.1267,19.723399999999998,17.0836,19.775100000000002Q17.040399999999998,19.8268,17.0026,19.8824Q16.9648,19.938000000000002,16.9328,19.997Q16.9007,20.0559,16.8747,20.1177Q16.8487,20.1795,16.8289,20.2435Q16.8092,20.3075,16.7959,20.3731Q16.782600000000002,20.4387,16.776,20.5053Q16.7693,20.5718,16.7693,20.6387Q16.7693,20.7056,16.776,20.7721Q16.782600000000002,20.8387,16.7959,20.9043Q16.8092,20.9699,16.8289,21.0339Q16.8487,21.0979,16.8747,21.1597Q16.9007,21.2214,16.9328,21.2804Q16.9648,21.3394,17.0026,21.395Q17.040399999999998,21.4506,17.0836,21.5023Q17.1267,21.554,17.174799999999998,21.6013Q17.2229,21.6486,17.2755,21.691Q17.3281,21.7334,17.384700000000002,21.7706Q17.441200000000002,21.8078,17.5012,21.8393Q17.5612,21.8708,17.624000000000002,21.8964Q17.6869,21.922,17.752000000000002,21.9414Q17.8171,21.9608,17.8838,21.9739Q17.950499999999998,21.9869,18.0182,21.9935Q18.0859,22,18.1539,22Z" fill-rule="evenodd" fill="#666666" fill-opacity="1"/></g></g></svg>