<svg xmlns="http://www.w3.org/2000/svg" xmlns:xlink="http://www.w3.org/1999/xlink" fill="none" version="1.1" width="19.5" height="17.265625" viewBox="0 0 19.5 17.265625"><g><g><path d="M9.63834,1.0982958978462218L9.749,1.177955897846222L9.85965,1.0982958978462218C12.26,-0.570849102153778,15.5618,-0.33083410215377806,17.6962,1.7720058978462219C18.8501,2.9076258978462217,19.5,4.460865897846222,19.5,6.081445897846222C19.5,7.701195897846222,18.8507,9.252375897846221,17.6978,10.389315897846222L11.4867,16.53811589784622C11.0278,17.002715897846223,10.4013,17.26561589784622,9.74899,17.26561589784622C9.09478,17.26561589784622,8.46789,17.00331589784622,8.01706,16.543815897846223L1.80076,10.383815897846222C0.648845,9.245655897846222,0,7.694625897846222,0,6.077425897846222C0,4.459795897846222,0.649175,2.908585897846222,1.8013,1.772525897846222C3.93618,-0.33080910215377807,7.238,-0.5708471021537781,9.63834,1.0982958978462218ZM18,6.0814058978462215C18,4.862575897846222,17.5113,3.6945758978462218,16.6437,2.8407958978462218C14.8863,1.109325897846222,12.083,1.047035897846222,10.2512,2.6987058978462217L9.74899,3.151585897846222L9.24675,2.6987058978462217C7.41502,1.047035897846222,4.6117,1.109325897846222,2.85426,2.8407958978462218C1.98818,3.694795897846222,1.5,4.861315897846222,1.5,6.077385897846222C1.5,7.293365897846222,1.98813,8.460215897846222,2.8558,9.317515897846222L9.08027,15.485715897846221C9.25598,15.664815897846221,9.49689,15.765615897846223,9.74899,15.765615897846223C9.99945,15.765615897846223,10.2418,15.663915897846222,10.4254,15.478015897846221L16.6435,9.322245897846221C17.5118,8.466075897846222,18,7.299585897846222,18,6.0814058978462215Z" fill-rule="evenodd" fill="#333333" fill-opacity="1"/></g></g></svg>