<svg xmlns="http://www.w3.org/2000/svg" xmlns:xlink="http://www.w3.org/1999/xlink" fill="none" version="1.1" width="24" height="24" viewBox="0 0 24 24"><g><g></g><g><path d="M19.721,10.86049C19.721,6.52403,16.197,3,11.86049,3C7.52403,3,4,6.52403,4,10.86049C4,12.91108,5.02776,14.4527,6.29879,15.8675L6.65088,16.250500000000002C6.71037,16.3139,6.7702100000000005,16.377200000000002,6.83034,16.4402L7.19389,16.817L8.37154,18.020200000000003L8.981290000000001,18.6149L9.99339,19.5748L11.29074,20.7784C11.61782,21.0739,12.11372,21.0739,12.4408,20.7784C12.49848,20.725,12.55948,20.6684,12.62332,20.6092L13.96884,19.3531L14.6667,18.6901L15.0858,18.284L15.4399,17.9315L16.7389,16.598100000000002C16.799799999999998,16.535,16.860300000000002,16.4717,16.9206,16.4084L17.2774,16.0268C18.625500000000002,14.557,19.721,12.99065,19.721,10.86049ZM11.86049,4.47711C8.336459999999999,4.47711,5.48769,7.32588,5.49821,10.849910000000001C5.49821,12.71622,6.51005,14.1351,7.70534,15.4124L8.05113,15.7737L8.57913,16.3048L9.017109999999999,16.7312L10.023240000000001,17.682000000000002L11.66002,19.2063C11.77609,19.3118,11.955449999999999,19.3118,12.07151,19.2063L14.2969,17.124000000000002L14.8605,16.5881L15.3394,16.1196L15.6906,15.7664L16.0357,15.4068C17.2284,14.1351,18.2333,12.71622,18.2333,10.849910000000001C18.2333,7.32588,15.3845,4.47711,11.86049,4.47711ZM15.1524,10.51231C15.1524,8.69754,13.67526,7.2204,11.86049,7.2204C10.04572,7.2204,8.56858,8.69754,8.56858,10.51231C8.56858,12.32708,10.04572,13.8042,11.86049,13.8042C13.67526,13.8042,15.1524,12.32708,15.1524,10.51231ZM9.97186,10.50179C9.97186,9.457239999999999,10.815940000000001,8.61316,11.86049,8.61316C12.90504,8.61316,13.74912,9.457239999999999,13.74912,10.50179C13.74912,11.54634,12.90504,12.39042,11.86049,12.39042C10.815940000000001,12.39042,9.97186,11.54634,9.97186,10.50179Z" fill-rule="evenodd" fill="#FFFFFF" fill-opacity="1"/></g></g></svg>