<svg xmlns="http://www.w3.org/2000/svg" xmlns:xlink="http://www.w3.org/1999/xlink" fill="none" version="1.1" width="24" height="24" viewBox="0 0 24 24"><g><g></g><g><path d="M11.92469,20.9129C10.27138,20.9129,8.6355,20.5328,7.17536,19.8134L4.32819,20.4127C4.08807,20.4636,3.8385499999999997,20.3896,3.66495,20.2161C3.4913600000000002,20.0426,3.41722,19.7931,3.4678899999999997,19.5529L3.9466900000000003,17.278C2.67149,15.7273,2,13.8954,2,11.95643C2,7.01732,6.45207,3,11.92469,3C17.3968,3,21.8494,7.01732,21.8494,11.95643C21.8494,16.8951,17.3968,20.9129,11.92469,20.9129ZM7.27655,18.323700000000002C7.39322,18.323700000000002,7.50941,18.3523,7.61447,18.407C8.92501,19.0964,10.41565,19.4605,11.92469,19.4605C16.5961,19.4605,20.397,16.0943,20.397,11.95643C20.397,7.81856,16.5961,4.45239,11.92469,4.45239C7.25282,4.45239,3.4523900000000003,7.81856,3.4523900000000003,11.95643C3.4523900000000003,13.6528,4.08176,15.2563,5.273210000000001,16.594900000000003C5.42668,16.7668,5.48962,17.0016,5.4416899999999995,17.2267L5.11829,18.7623L7.12646,18.339199999999998C7.17633,18.329,7.2262,18.323700000000002,7.27655,18.323700000000002ZM7.0824,12.9242C7.61716,12.92446,8.05088,12.49117,8.05115,11.95642C8.05142,11.42166,7.61813,10.98794,7.08337,10.98767C6.54861,10.987400000000001,6.11489,11.42069,6.11462,11.95545C6.11436,12.49021,6.54765,12.92393,7.0824,12.9242ZM12.4079,12.79472C12.7076,12.6219,12.8923,12.30234,12.8925,11.95642C12.8927,11.42166,12.4594,10.98794,11.92468,10.98767C11.38992,10.987400000000001,10.9562,11.42069,10.95593,11.95545C10.95576,12.30138,11.14015,12.62112,11.43964,12.79423C11.73914,12.96734,12.1082,12.96753,12.4079,12.79472ZM17.733800000000002,11.95642C17.7336,12.30234,17.5489,12.6219,17.249200000000002,12.79472C16.9495,12.96753,16.580399999999997,12.96734,16.281,12.79423C15.9815,12.62112,15.7971,12.30138,15.7972,11.95545C15.7975,11.42069,16.2312,10.987400000000001,16.766,10.98767C17.3007,10.98794,17.734,11.42166,17.733800000000002,11.95642Z" fill-rule="evenodd" fill="#FFFFFF" fill-opacity="1"/></g></g></svg>