<svg xmlns="http://www.w3.org/2000/svg" xmlns:xlink="http://www.w3.org/1999/xlink" fill="none" version="1.1" width="16.666664123535156" height="16.666748046875" viewBox="0 0 16.666664123535156 16.666748046875"><g style="opacity:0.6000000238418579;"><g><path d="M16.42259874830246,15.244140709972381L13.35989874830246,12.181440709972382C14.38629874830246,10.898340709972382,14.99999874830246,9.270880709972381,14.99999874830246,7.500040709972382C14.99999874830246,3.3579007099723817,11.642098748302459,0.0000407099723815918,7.49999874830246,0.0000407099723815918C3.35785874830246,0.0000407099723815918,-0.0000012516975402832031,3.3579007099723817,-0.0000012516975402832031,7.500040709972382C-0.0000012516975402832031,11.64214070997238,3.35785874830246,15.000040709972382,7.49999874830246,15.000040709972382C9.27083874830246,15.000040709972382,10.89829874830246,14.386340709972382,12.18139874830246,13.359940709972381L15.24409874830246,16.42264070997238C15.56949874830246,16.748040709972383,16.09719874830246,16.748040709972383,16.42259874830246,16.42264070997238C16.74799874830246,16.097240709972382,16.74799874830246,15.569540709972381,16.42259874830246,15.244140709972381ZM7.49999874830246,13.333340709972381Q7.64319874830246,13.333340709972381,7.7862287483024595,13.326340709972381Q7.92925874830246,13.319240709972382,8.07176874830246,13.30524070997238Q8.21427874830246,13.291240709972381,8.35592874830246,13.270240709972382Q8.497578748302459,13.249140709972382,8.63802874830246,13.221240709972381Q8.77847874830246,13.193340709972382,8.91737874830246,13.158540709972382Q9.05628874830246,13.123740709972381,9.19332874830246,13.082140709972382Q9.33035874830246,13.040540709972381,9.46518874830246,12.992340709972382Q9.60001874830246,12.944140709972382,9.73231874830246,12.889340709972382Q9.86461874830246,12.834540709972382,9.99406874830246,12.77324070997238Q10.12349874830246,12.712040709972381,10.24979874830246,12.644540709972382Q10.376098748302459,12.577040709972382,10.49889874830246,12.50344070997238Q10.62179874830246,12.429840709972382,10.74079874830246,12.35024070997238Q10.85989874830246,12.270640709972382,10.97489874830246,12.185340709972381Q11.08989874830246,12.100040709972381,11.20059874830246,12.009240709972381Q11.311298748302459,11.918340709972382,11.41739874830246,11.822240709972382Q11.52349874830246,11.726040709972382,11.62479874830246,11.624740709972382Q11.72599874830246,11.523540709972382,11.82219874830246,11.417440709972382Q11.91839874830246,11.31134070997238,12.00919874830246,11.200640709972381Q12.10009874830246,11.089940709972382,12.18539874830246,10.974940709972381Q12.27069874830246,10.859840709972381,12.350198748302459,10.740840709972382Q12.42979874830246,10.621740709972382,12.503398748302459,10.498940709972382Q12.57699874830246,10.37614070997238,12.64449874830246,10.249840709972382Q12.71199874830246,10.123540709972382,12.77329874830246,9.994070709972382Q12.83449874830246,9.864620709972382,12.88929874830246,9.732320709972381Q12.94409874830246,9.600020709972382,12.99229874830246,9.465190709972381Q13.04059874830246,9.330360709972382,13.08219874830246,9.19333070997238Q13.12369874830246,9.056290709972382,13.15849874830246,8.917380709972381Q13.19329874830246,8.778470709972382,13.22119874830246,8.638030709972382Q13.24919874830246,8.497580709972382,13.27019874830246,8.355930709972382Q13.29119874830246,8.214280709972382,13.305198748302459,8.071770709972382Q13.31929874830246,7.929250709972382,13.32629874830246,7.786230709972382Q13.33329874830246,7.6432007099723815,13.33329874830246,7.500000709972381Q13.33329874830246,7.356800709972382,13.32629874830246,7.213770709972382Q13.31929874830246,7.070740709972382,13.305198748302459,6.928230709972381Q13.29119874830246,6.785720709972382,13.27019874830246,6.6440707099723815Q13.24919874830246,6.502420709972381,13.22119874830246,6.361970709972382Q13.19329874830246,6.221520709972381,13.15849874830246,6.082610709972381Q13.12369874830246,5.943710709972382,13.08219874830246,5.806670709972382Q13.04059874830246,5.669640709972382,12.99229874830246,5.534810709972382Q12.94409874830246,5.3999807099723816,12.88929874830246,5.267680709972382Q12.83449874830246,5.135380709972382,12.77329874830246,5.0059307099723815Q12.71199874830246,4.876480709972381,12.64449874830246,4.750180709972382Q12.57699874830246,4.623890709972382,12.503398748302459,4.501070709972382Q12.42979874830246,4.378240709972381,12.350198748302459,4.2591707099723815Q12.27069874830246,4.140110709972381,12.18539874830246,4.025090709972382Q12.10009874830246,3.9100707099723815,12.00919874830246,3.7993707099723815Q11.91839874830246,3.6886807099723815,11.82219874830246,3.582570709972382Q11.72599874830246,3.4764707099723817,11.62479874830246,3.3752107099723814Q11.52349874830246,3.2739507099723815,11.41739874830246,3.1777807099723816Q11.311298748302459,3.081620709972382,11.20059874830246,2.9907707099723817Q11.08989874830246,2.8999307099723817,10.97489874830246,2.8146207099723815Q10.85989874830246,2.7293207099723817,10.74079874830246,2.6497607099723814Q10.62179874830246,2.5702007099723816,10.49889874830246,2.4965807099723816Q10.376098748302459,2.4229607099723816,10.24979874830246,2.3554607099723817Q10.12349874830246,2.2879507099723817,9.99406874830246,2.2267307099723816Q9.86461874830246,2.1655007099723815,9.73231874830246,2.110700709972382Q9.60001874830246,2.0559007099723816,9.46518874830246,2.0076607099723818Q9.33035874830246,1.9594207099723815,9.19332874830246,1.9178507099723816Q9.05628874830246,1.8762807099723815,8.91737874830246,1.8414807099723816Q8.77847874830246,1.8066907099723817,8.63802874830246,1.7787507099723816Q8.497578748302459,1.7508107099723815,8.35592874830246,1.7298007099723816Q8.21427874830246,1.7087907099723816,8.07176874830246,1.6947607099723816Q7.92925874830246,1.6807207099723815,7.7862287483024595,1.6736907099723817Q7.64319874830246,1.6666707099723816,7.49999874830246,1.6666707099723816Q7.3567987483024595,1.6666707099723816,7.21376874830246,1.6736907099723817Q7.07074874830246,1.6807207099723815,6.9282387483024594,1.6947607099723816Q6.78571874830246,1.7087907099723816,6.64406874830246,1.7298007099723816Q6.50241874830246,1.7508107099723815,6.36196874830246,1.7787507099723816Q6.221528748302459,1.8066907099723817,6.08261874830246,1.8414807099723816Q5.94370874830246,1.8762807099723815,5.80666874830246,1.9178507099723816Q5.66963874830246,1.9594207099723815,5.53480874830246,2.0076607099723818Q5.39997874830246,2.0559007099723816,5.26767874830246,2.110700709972382Q5.135378748302459,2.1655007099723815,5.00592874830246,2.2267307099723816Q4.87647874830246,2.2879507099723817,4.75018874830246,2.3554607099723817Q4.62388874830246,2.4229607099723816,4.50106874830246,2.4965807099723816Q4.37823874830246,2.5702007099723816,4.25916874830246,2.6497607099723814Q4.14010874830246,2.7293207099723817,4.025088748302459,2.8146207099723815Q3.91006874830246,2.8999307099723817,3.79936874830246,2.9907707099723817Q3.68867874830246,3.081620709972382,3.5825687483024597,3.1777807099723816Q3.4764687483024597,3.2739507099723815,3.3752087483024598,3.3752107099723814Q3.27394874830246,3.4764707099723817,3.1777887483024596,3.582570709972382Q3.0816187483024597,3.6886807099723815,2.9907687483024596,3.7993707099723815Q2.8999287483024596,3.9100707099723815,2.81461874830246,4.025090709972382Q2.7293187483024597,4.140110709972381,2.64975874830246,4.2591707099723815Q2.5701987483024595,4.378240709972381,2.4965787483024595,4.501070709972382Q2.4229587483024595,4.623890709972382,2.3554587483024596,4.750180709972382Q2.2879587483024597,4.876480709972381,2.2267287483024596,5.0059307099723815Q2.16549874830246,5.135380709972382,2.1106987483024597,5.267680709972382Q2.0558987483024596,5.3999807099723816,2.0076587483024597,5.534810709972382Q1.9594187483024597,5.669640709972382,1.9178487483024598,5.806670709972382Q1.8762787483024597,5.943710709972382,1.8414887483024598,6.082610709972381Q1.8066887483024596,6.221520709972381,1.7787487483024598,6.361970709972382Q1.7508187483024598,6.502420709972381,1.7297987483024597,6.6440707099723815Q1.7087887483024597,6.785720709972382,1.6947587483024598,6.928230709972381Q1.6807187483024597,7.070740709972382,1.6736887483024596,7.213770709972382Q1.6666687483024598,7.356800709972382,1.6666687483024598,7.500000709972381Q1.6666687483024598,7.6432007099723815,1.6736887483024596,7.786230709972382Q1.6807187483024597,7.929250709972382,1.6947587483024598,8.071770709972382Q1.7087887483024597,8.214280709972382,1.7297987483024597,8.355930709972382Q1.7508187483024598,8.497580709972382,1.7787487483024598,8.638030709972382Q1.8066887483024596,8.778470709972382,1.8414887483024598,8.917380709972381Q1.8762787483024597,9.056290709972382,1.9178487483024598,9.19333070997238Q1.9594187483024597,9.330360709972382,2.0076587483024597,9.465190709972381Q2.0558987483024596,9.600020709972382,2.1106987483024597,9.732320709972381Q2.16549874830246,9.864620709972382,2.2267287483024596,9.994070709972382Q2.2879587483024597,10.123540709972382,2.3554587483024596,10.249840709972382Q2.4229587483024595,10.37614070997238,2.4965787483024595,10.498940709972382Q2.5701987483024595,10.621740709972382,2.64975874830246,10.740840709972382Q2.7293187483024597,10.859940709972381,2.81461874830246,10.974940709972381Q2.8999287483024596,11.089940709972382,2.9907687483024596,11.200640709972381Q3.0816187483024597,11.31134070997238,3.1777887483024596,11.417440709972382Q3.27394874830246,11.523540709972382,3.3752087483024598,11.624740709972382Q3.4764687483024597,11.726040709972382,3.5825687483024597,11.822240709972382Q3.68867874830246,11.918340709972382,3.79936874830246,12.009240709972381Q3.91006874830246,12.100040709972381,4.025088748302459,12.185340709972381Q4.14010874830246,12.270640709972382,4.25916874830246,12.35024070997238Q4.37823874830246,12.429840709972382,4.50106874830246,12.50344070997238Q4.62388874830246,12.577040709972382,4.75018874830246,12.644540709972382Q4.87647874830246,12.712040709972381,5.00592874830246,12.77324070997238Q5.135378748302459,12.834540709972382,5.26767874830246,12.889340709972382Q5.39997874830246,12.944140709972382,5.53480874830246,12.992340709972382Q5.66963874830246,13.040540709972381,5.80666874830246,13.082140709972382Q5.94370874830246,13.123740709972381,6.08261874830246,13.158540709972382Q6.221528748302459,13.193340709972382,6.36196874830246,13.221240709972381Q6.50241874830246,13.249140709972382,6.64406874830246,13.270240709972382Q6.78571874830246,13.291240709972381,6.9282387483024594,13.30524070997238Q7.07074874830246,13.319240709972382,7.21376874830246,13.326340709972381Q7.3567987483024595,13.333340709972381,7.49999874830246,13.333340709972381Z" fill-rule="evenodd" fill="#999999" fill-opacity="1"/></g></g></svg>