<svg xmlns="http://www.w3.org/2000/svg" xmlns:xlink="http://www.w3.org/1999/xlink" fill="none" version="1.1" width="109" height="125" viewBox="0 0 109 125"><g><g><g><g><path d="M101.5735,125C101.5735,125,13.42654,125,13.42654,125C9.32492,125,6,121.665,6,117.551C6,117.551,6,10.44908,6,10.44908C6,6.3350100000000005,9.32492,3,13.42654,3C13.42654,3,101.5735,3,101.5735,3C105.6751,3,109,6.3350100000000005,109,10.44908C109,10.44908,109,117.551,109,117.551C109,121.665,105.6751,125,101.5735,125Z" fill="#C6DCD5" fill-opacity="1"/></g><g><path d="M6,100C6,100,6,117.8763,6,117.8763C6,121.8107,9.32492,125,13.42654,125C13.42654,125,101.5735,125,101.5735,125C105.6751,125,109,121.8107,109,117.8763C109,117.8763,109,100.00000000000001,109,100.00000000000001C109,100.00000000000001,6,100,6,100Z" fill="#C6DCD5" fill-opacity="1"/></g><g><path d="M97.2911,119C97.2911,119,17.7089,119,17.7089,119C14.00414,119,11,115.988,11,112.273C11,112.273,11,14.72702,11,14.72702C11,11.01174,14.00414,8,17.7089,8C17.7089,8,97.2911,8,97.2911,8C100.9959,8,104,11.01174,104,14.72702C104,14.72702,104,112.273,104,112.273C104,115.988,100.9959,119,97.2911,119C97.2911,119,97.2911,119,97.2911,119Z" fill="#FFFFFF" fill-opacity="1"/></g><g><path d="M86.309,90.00000000000001C86.309,90.00000000000001,6.71029,90.00000000000001,6.71029,90.00000000000001C3.00383,90.00000000000001,0,93.0446,0,96.80136C0,96.80136,0,105.76650000000001,0,105.76650000000001C0,113.0747,5.84595,119,13.0572,119C13.0572,119,98,119,98,119C95.249,119,93.0184,116.7392,93.0184,113.9508C93.0184,113.9508,93.0184,96.80136,93.0184,96.80136C93.0184,93.0446,90.0146,90,86.309,90C86.309,90,86.309,90.00000000000001,86.309,90.00000000000001Z" fill="#DAE8E3" fill-opacity="1"/></g><g><g><path d="M22,45.000000000000455C22,45.000000000000455,93,45.000000000000455,93,45.000000000000455C93,45.000000000000455,93,49.000000000000455,93,49.000000000000455C93,49.000000000000455,22,49.000000000000455,22,49.000000000000455C22,49.000000000000455,22,45.000000000000455,22,45.000000000000455Z" fill="#EBF5F3" fill-opacity="1"/></g><g><path d="M22,61C22,61,93,61,93,61C93,61,93,65,93,65C93,65,22,65,22,65C22,65,22,61,22,61Z" fill="#EBF5F3" fill-opacity="1"/></g><g><path d="M22.00000000000003,76C22.00000000000003,76,78.00000000000003,76,78.00000000000003,76C78.00000000000003,76,78.00000000000003,80,78.00000000000003,80C78.00000000000003,80,22.00000000000003,80,22.00000000000003,80C22.00000000000003,80,22.00000000000003,76,22.00000000000003,76Z" fill="#EBF5F3" fill-opacity="1"/></g></g><g><path d="M67.35040000000001,26C67.35040000000001,26,46.64955,26,46.64955,26C41.88066,26,38,21.94743,38,16.96628C38,16.96628,38,13,38,13C38,13,41.93136,13,41.93136,13C41.93136,13,41.93136,16.96628,41.93136,16.96628C41.93136,19.68336,44.04774,21.89448,46.64955,21.89448C46.64955,21.89448,67.3495,21.89448,67.3495,21.89448C69.95230000000001,21.89448,72.0686,19.68434,72.0686,16.96628C72.0686,16.96628,72.0686,13,72.0686,13C72.0686,13,76,13,76,13C76,13,76,16.96628,76,16.96628C76,21.94743,72.11930000000001,26,67.35040000000001,26C67.35040000000001,26,67.35040000000001,26,67.35040000000001,26Z" fill="#EBF5F3" fill-opacity="1"/></g><g><path d="M74.7458,14C74.7458,14,40.25322,14,40.25322,14C37.90484,14,36,12.1059,36,9.76869C36,9.76869,36,4.23131,36,4.23131C36,1.89503,37.90484,0,40.25322,0C40.25322,0,74.7458,0,74.7458,0C77.0952,0,79,1.89503,79,4.23131C79,4.23131,79,9.76869,79,9.76869C79,12.1059,77.0952,14,74.7458,14Z" fill="#A2C3B8" fill-opacity="1"/></g></g></g></g></svg>