<svg xmlns="http://www.w3.org/2000/svg" xmlns:xlink="http://www.w3.org/1999/xlink" fill="none" version="1.1" width="22" height="22" viewBox="0 0 22 22"><g><g><ellipse cx="11" cy="11" rx="11" ry="11" fill="#40AE36" fill-opacity="1"/></g><g><path d="M6.501329999999999,5.985158190734864C6.43369,5.589530190734863,6.0907800000000005,5.3002298587348635,5.6894100000000005,5.300171010734863L4.524341,5.300000190734863L4.430027,5.308446790734863C4.185459,5.352837290734863,4,5.566893190734863,4,5.824265190734863C4,6.113850190734864,4.234756,6.348610190734863,4.524341,6.348610190734863L5.15405,6.348610190734863C5.35475,6.348610190734863,5.52623,6.493240190734864,5.56007,6.691060190734863L6.77942,13.818610190734864C6.8471,14.214240190734863,7.19006,14.503510190734863,7.59145,14.503510190734863L15.4003,14.503510190734863C15.8087,14.503510190734863,16.1555,14.204250190734863,16.2153,13.800200190734863L16.9911,8.553810190734863C16.997,8.513910190734864,16.9999,8.473630190734863,16.9999,8.433300190734863C16.9999,7.978310190734863,16.6311,7.609470190734863,16.176099999999998,7.609470190734863L7.12651,7.609470190734863C6.92581,7.609470190734863,6.75432,7.464810190734863,6.72049,7.266980190734863L6.501329999999999,5.985158190734864ZM15.4401,8.658150190734863L7.4467,8.658150190734863C7.2192,8.658150190734863,7.03478,8.842570190734863,7.03478,9.070070190734864L7.04068,9.139530190734863L7.7204,13.112380190734864C7.75425,13.310200190734863,7.92573,13.454830190734864,8.12642,13.454830190734864L14.8534,13.454830190734864C15.0577,13.454830190734864,15.2311,13.305150190734864,15.2609,13.103090190734864L15.8476,9.130250190734863C15.8809,8.905190190734864,15.7254,8.695810190734864,15.5003,8.662570190734863L15.4401,8.658150190734863ZM8.5,17.200000190734862Q8.58864,17.200000190734862,8.67558,17.182700190734863Q8.76252,17.165400190734864,8.84441,17.13150019073486Q8.92631,17.097500190734863,9.00001,17.048300190734864Q9.07371,16.99900019073486,9.136389999999999,16.936400190734865Q9.199069999999999,16.873700190734866,9.24832,16.800000190734863Q9.29757,16.72630019073486,9.331489999999999,16.644400190734864Q9.36541,16.562500190734863,9.38271,16.475600190734863Q9.4,16.388600190734863,9.4,16.300000190734863Q9.4,16.211300190734864,9.38271,16.124400190734864Q9.36541,16.037500190734864,9.331489999999999,15.955600190734863Q9.29757,15.873700190734864,9.24832,15.800000190734863Q9.199069999999999,15.726300190734863,9.136389999999999,15.663600190734863Q9.07371,15.600900190734864,9.00001,15.551700190734863Q8.92631,15.502400190734864,8.84441,15.468500190734863Q8.76252,15.434600190734864,8.67558,15.417300190734863Q8.58864,15.400000190734863,8.5,15.400000190734863Q8.41136,15.400000190734863,8.32442,15.417300190734863Q8.23748,15.434600190734864,8.15558,15.468500190734863Q8.07369,15.502400190734864,7.99998,15.551700190734863Q7.92628,15.600900190734864,7.8636,15.663600190734863Q7.80092,15.726300190734863,7.75168,15.800000190734863Q7.70243,15.873700190734864,7.6685099999999995,15.955600190734863Q7.63458,16.037500190734864,7.617290000000001,16.124400190734864Q7.6,16.211300190734864,7.6,16.300000190734863Q7.6,16.388600190734863,7.617290000000001,16.475600190734863Q7.63458,16.562500190734863,7.6685099999999995,16.644400190734864Q7.70243,16.72630019073486,7.75168,16.800000190734863Q7.80092,16.873700190734866,7.8636,16.936400190734865Q7.92628,16.99900019073486,7.99998,17.048300190734864Q8.07369,17.097500190734863,8.15558,17.13150019073486Q8.23748,17.165400190734864,8.32442,17.182700190734863Q8.41136,17.200000190734862,8.5,17.200000190734862ZM14.5,17.200000190734862Q14.5886,17.200000190734862,14.6756,17.182700190734863Q14.7625,17.165400190734864,14.8444,17.13150019073486Q14.9263,17.097500190734863,15,17.048300190734864Q15.0737,16.99900019073486,15.1364,16.936400190734865Q15.1991,16.873700190734866,15.2483,16.800000190734863Q15.2976,16.72630019073486,15.3315,16.644400190734864Q15.3654,16.562500190734863,15.3827,16.475600190734863Q15.4,16.388600190734863,15.4,16.300000190734863Q15.4,16.211300190734864,15.3827,16.124400190734864Q15.3654,16.037500190734864,15.3315,15.955600190734863Q15.2976,15.873700190734864,15.2483,15.800000190734863Q15.1991,15.726300190734863,15.1364,15.663600190734863Q15.0737,15.600900190734864,15,15.551700190734863Q14.9263,15.502400190734864,14.8444,15.468500190734863Q14.7625,15.434600190734864,14.6756,15.417300190734863Q14.5886,15.400000190734863,14.5,15.400000190734863Q14.4114,15.400000190734863,14.3244,15.417300190734863Q14.2375,15.434600190734864,14.1556,15.468500190734863Q14.0737,15.502400190734864,13.99998,15.551700190734863Q13.92628,15.600900190734864,13.8636,15.663600190734863Q13.80092,15.726300190734863,13.75167,15.800000190734863Q13.70243,15.873700190734864,13.66851,15.955600190734863Q13.63458,16.037500190734864,13.61729,16.124400190734864Q13.6,16.211300190734864,13.6,16.300000190734863Q13.6,16.388600190734863,13.61729,16.475600190734863Q13.63458,16.562500190734863,13.66851,16.644400190734864Q13.70243,16.72630019073486,13.75167,16.800000190734863Q13.80092,16.873700190734866,13.8636,16.936400190734865Q13.92628,16.99900019073486,13.99998,17.048300190734864Q14.0737,17.097500190734863,14.1556,17.13150019073486Q14.2375,17.165400190734864,14.3244,17.182700190734863Q14.4114,17.200000190734862,14.5,17.200000190734862Z" fill-rule="evenodd" fill="#FFFFFF" fill-opacity="1"/></g></g></svg>