<svg xmlns="http://www.w3.org/2000/svg" xmlns:xlink="http://www.w3.org/1999/xlink" fill="none" version="1.1" width="24.85693359375" height="24.854736328125" viewBox="0 0 24.85693359375 24.854736328125"><g><g><path d="M21.2125,0C21.2125,0,3.64518,0,3.64518,0C1.63173,0,0,1.63175,0,3.64437C0,3.64437,0,21.2104,0,21.2104C0,23.223,1.63175,24.8548,3.64518,24.8548C3.64518,24.8548,21.2125,24.8548,21.2125,24.8548C23.2256,24.8548,24.8569,23.223,24.8569,21.2104C24.8569,21.2104,24.8569,3.64437,24.8569,3.64437C24.8569,1.63175,23.2256,0,21.2125,0Z" fill-rule="evenodd" fill="#02A9F1" fill-opacity="1"/></g><g><path d="M12.91698,12.979099999999999C13.23938,13.10802,13.43591,13.08506,13.56865,12.70154C13.77347,12.10999,14.0031,11.52773,14.2399,10.95021C14.4198,10.511389999999999,14.3337,10.3704,13.86943,10.37579C12.42947,10.39253,10.9894,10.39123,9.549299999999999,10.38993C8.91629,10.38936,8.28327,10.38878,7.65025,10.38974C7.62987,10.389759999999999,7.60962,10.390039999999999,7.58961,10.39032C7.359859999999999,10.39347,7.16217,10.39619,7.16217,10.00195C7.16206,9.59202,7.36853,9.59341,7.63535,9.5952L7.6392299999999995,9.595220000000001C7.92865,9.597339999999999,8.21827,9.59366,8.50787,9.58998C9.05156,9.58307,9.59514,9.57616,10.136949999999999,9.60764C10.63025,9.63622,10.78309,9.485990000000001,10.755690000000001,8.9483C10.73225,8.490829999999999,10.74532,8.30768,10.662410000000001,8.23682C10.58549,8.17108,10.42594,8.202,10.07797,8.20018C8.99727,8.194189999999999,7.91625,8.19264,6.83542,8.20365C6.5534300000000005,8.20645,6.37789,8.19097,6.37458,7.78702C6.37139,7.386369999999999,6.5466999999999995,7.357200000000001,6.82651,7.35855C7.25644,7.360720000000001,7.686389999999999,7.35933,8.11632,7.357950000000001C8.82047,7.35567,9.52458,7.35339,10.22851,7.36676C10.60302,7.3738600000000005,10.758,7.2910900000000005,10.75768,6.83392C10.75615,4.9589619,10.77016,4.9594211,12.47358,5.0152496L12.49683,5.0160115C12.83324,5.0270212,12.9177,5.161473,12.90045,5.499309C12.88946,5.713409,12.89327,5.9285060000000005,12.89708,6.1434999999999995C12.90145,6.39009,12.90582,6.63654,12.88785,6.8812C12.85899,7.274039999999999,12.99484,7.371919999999999,13.33447,7.36742C14.0921,7.35732,14.8497,7.35815,15.6074,7.35899C16.107799999999997,7.35954,16.6081,7.3601,17.1085,7.3575C17.3858,7.35605,17.5698,7.3763000000000005,17.5702,7.78024C17.5704,8.17863,17.401400000000002,8.20488,17.1161,8.20215C16.305,8.1945,15.4937,8.195730000000001,14.6826,8.19696C14.3598,8.19745,14.0369,8.19794,13.71411,8.19787C12.89561,8.19775,12.8956,8.19787,12.88574,9.06174C12.88552,9.081520000000001,12.88529,9.10177,12.88504,9.12247C12.88048,9.509409999999999,12.99597,9.60891,13.33705,9.60107C13.74179,9.591750000000001,14.1469,9.595279999999999,14.552,9.5988C15.0863,9.60346,15.6206,9.60811,16.1538,9.58326C16.662599999999998,9.55939,16.6622,9.78866,16.550800000000002,10.18965C16.253999999999998,11.25728,15.9259,12.31686,15.4084,13.28046C15.1499,13.76162,15.2883,13.86624,15.6981,14.00103C17.407899999999998,14.56383,19.1137,15.1413,20.81,15.7497C20.8842,15.7762,20.9468,15.794,21,15.8036L21,18.950499999999998C20.9634,18.9284,20.9227,18.9068,20.8771,18.8855C18.7151,17.8763,16.5642,16.8378,14.4211,15.7822C14.0951,15.6216,13.9261,15.6732,13.71132,15.9581C13.2511,16.5685,12.72657,17.117,12.13674,17.5801C10.498619999999999,18.8658,8.69318,19.3017,6.71095,18.792099999999998C6.5945,18.8129,6.49667,18.7698,6.4098500000000005,18.6888C6.37028,18.6768,6.33049,18.6649,6.29083,18.653C6.18665,18.666,6.10144,18.6295,6.03674,18.5395C6.0366800000000005,18.5399,6.0031099999999995,18.5298,6.0031099999999995,18.5298C4.722068,17.9687,3.9651056,16.7857,4.00123779,15.4012C4.0396821,13.93004,4.8425460000000005,12.713460000000001,6.0768699999999995,12.256039999999999C6.6195699999999995,11.98724,7.1994299999999996,11.91449,7.7847100000000005,11.90474C9.563189999999999,11.875350000000001,11.26172,12.31709,12.91698,12.979099999999999ZM6.9272100000000005,17.619799999999998C9.151810000000001,17.9773,10.77076,16.8491,12.14172,15.1187C12.15679,15.0997,12.17285,15.0805,12.18904,15.0612C12.32351,14.90047,12.46692,14.72908,12.12587,14.56229C10.30129,13.6706,8.43495,13.02525,6.39253,13.36643C6.35773,13.3768,6.32285,13.38717,6.28805,13.39764L6.26396,13.42062L6.23372,13.40858C6.18002,13.43055,6.12634,13.4525,6.07253,13.47447C5.97093,13.53379,5.86927,13.59329,5.76758,13.65271C5.58728,13.83243,5.38493,13.99256,5.23018,14.19526C4.409973,15.2701,4.846801,16.7728,6.14128,17.358C6.35089,17.4528,6.5619,17.5437,6.77266,17.636200000000002C6.78913,17.6343,6.80575,17.6311,6.822369999999999,17.628C6.85792,17.6212,6.89343,17.6144,6.9272100000000005,17.619799999999998Z" fill-rule="evenodd" fill="#F5F5F5" fill-opacity="1"/></g></g></svg>