<svg xmlns="http://www.w3.org/2000/svg" xmlns:xlink="http://www.w3.org/1999/xlink" fill="none" version="1.1" width="24.85693359375" height="24.854736328125" viewBox="0 0 24.85693359375 24.854736328125"><g><g><path d="M21.212510469928382,-0.00011303648352622986C21.212510469928382,-0.00011303648352622986,3.6451904699283837,-0.00011303648352622986,3.6451904699283837,-0.00011303648352622986C1.6317404699283837,-0.00011303648352622986,0.00001046992838382721,1.6316369635164738,0.00001046992838382721,3.6442569635164737C0.00001046992838382721,3.6442569635164737,0.00001046992838382721,21.210286963516474,0.00001046992838382721,21.210286963516474C0.00001046992838382721,23.222886963516473,1.6317604699283839,24.854686963516475,3.6451904699283837,24.854686963516475C3.6451904699283837,24.854686963516475,21.212510469928382,24.854686963516475,21.212510469928382,24.854686963516475C23.225610469928384,24.854686963516475,24.856910469928383,23.222886963516473,24.856910469928383,21.210286963516474C24.856910469928383,21.210286963516474,24.856910469928383,3.6442569635164737,24.856910469928383,3.6442569635164737C24.856910469928383,1.6316369635164738,23.225610469928384,-0.00011303648352622986,21.212510469928382,-0.00011303648352622986Z" fill="#09D116" fill-opacity="1"/></g><g><path d="M7.619213203125,15.74131015625C8.417003203124999,15.89911015625,9.058783203125,16.06511015625,9.848923203125,16.06511015625C10.046683203125,16.06511015625,10.244013203125,16.05771015625,10.441763203125,16.03661015625C10.314873203125,15.60381015625,10.244013203125,15.14161015625,10.244013203125,14.67293015625C10.244473203125,11.829920156250001,12.636483203125,9.521600156249999,15.663583203125,9.521600156249999C15.868483203125,9.521600156249999,16.073083203125,9.53627015625,16.277483203125,9.55829015625C15.727283203125,6.93171015625,12.982733203125,4.98291015625,9.849783203125,4.98291015625C6.349663203125,4.98291015625,3.478241475125,7.42144015625,3.477783203125,10.523990156250001C3.477325261125,12.31230015625,4.430267203125,13.78519015625,6.0245032031250005,14.92515015625L5.389533203125,16.88771015625L7.619213203125,15.74131015625ZM7.774853203125,7.75342015625C7.295453203125,7.75342015625,6.815613203125,8.07806015625,6.815183203125001,8.56870015625C6.815183203125001,9.05934015625,7.295023203125,9.38402015625,7.774853203125,9.38402015625C8.254693203125,9.38402015625,8.572183203125,9.05202015625,8.572183203125,8.56870015625C8.572213203125,8.07806015625,8.254723203125,7.75342015625,7.774853203125,7.75342015625ZM13.031623203125,8.56961015625C13.031623203125,9.05934015625,12.714103203125,9.38399015625,12.234233203125,9.38399015625C11.754403203125,9.38399015625,11.275023203125,9.05931015625,11.275023203125,8.56870015625C11.281723203125,8.07806015625,11.761583203125,7.75342015625,12.234233203125,7.75342015625C12.714583203125,7.75342015625,13.031623203125,8.07806015625,13.031623203125,8.56961015625ZM19.727883203125,19.98301015625L19.248483203124998,18.352410156250002C20.525283203125,17.371110156249998,21.477783203125,16.06511015625,21.477783203125,14.60146015625C21.477783203125,11.99599015625,18.930583203125,9.87476015625,16.065883203125,9.87476015625C13.031613203125,9.87476015625,10.646243203125,11.99599015625,10.646243203125,14.60052015625C10.646243203125,17.21241015625,13.031593203125,19.326310156250003,16.065883203125,19.326310156250003C16.700883203125002,19.326310156250003,17.343083203124998,19.16031015625,17.978083203125,19.00171015625L19.727883203125,19.98301015625ZM14.308783203125,12.48657015625C13.991283203125,12.48657015625,13.673783203125,12.81122015625,13.673783203125,13.13586015625C13.673783203125,13.46053015625,13.991283203125,13.78518015625,14.308783203125,13.78518015625C14.788683203125,13.78518015625,15.106183203125,13.46053015625,15.106183203125,13.13586015625C15.106183203125,12.81125015625,14.788683203125,12.48657015625,14.308783203125,12.48657015625ZM17.180683203125,13.13586015625C17.180683203125,12.81122015625,17.498183203125002,12.48657015625,17.815683203124998,12.48657015625C18.295583203125,12.48657015625,18.612983203124998,12.81125015625,18.612983203124998,13.13586015625C18.612983203124998,13.46053015625,18.288383203125,13.78518015625,17.815683203124998,13.78518015625C17.498183203125002,13.78518015625,17.180683203125,13.46053015625,17.180683203125,13.13586015625Z" fill-rule="evenodd" fill="#F5F5F5" fill-opacity="1"/></g></g></svg>