<svg xmlns="http://www.w3.org/2000/svg" xmlns:xlink="http://www.w3.org/1999/xlink" fill="none" version="1.1" width="23.965179443359375" height="22.6796875" viewBox="0 0 23.965179443359375 22.6796875"><g><g><g><path d="M23.960157143003492,3.223792857275903C23.863157143003495,1.4375828572759033,22.378657143003494,0.013392857275903225,20.568757143003495,0.013392857275903225L3.4017871430034936,0.013392857275903225L3.2157571430034935,0.018429667275903224C1.4295471430034936,0.11538685727590323,0.0053571430034935474,1.5999128572759032,0.0053571430034935474,3.4098228572759033L0.0053571430034935474,16.087492857275905L0.010393953003493547,16.273492857275905C0.10735114300349355,18.059692857275902,1.5918771430034935,19.483892857275904,3.4017871430034936,19.483892857275904L7.465177143003493,19.483892857275904L9.476787143003493,21.616092857275902L9.629107143003493,21.767692857275904C10.253957143003493,22.352292857275902,11.062057143003493,22.674492857275904,11.924957143003494,22.679492857275903L12.154357143003493,22.672892857275905C13.002757143003494,22.6207928572759,13.788057143003494,22.258292857275904,14.383957143003494,21.640192857275903L16.454457143003495,19.4865928572759L20.568757143003495,19.4865928572759L20.754757143003495,19.481592857275903C22.540957143003492,19.384592857275905,23.965157143003495,17.900092857275904,23.965157143003495,16.090192857275902L23.965157143003495,3.4098228572759033L23.960157143003492,3.223792857275903ZM3.3295771430034935,2.1152328572759034L3.4586171430034938,2.1125128572759033L20.568757143003495,2.113282857275903L20.695857143003494,2.1195528572759033C21.323957143003494,2.1817428572759034,21.828557143003493,2.699252857275903,21.863257143003494,3.3375028572759033L21.865957143003495,3.4665528572759032L21.865157143003493,16.090092857275902L21.858857143003494,16.217192857275904C21.796757143003493,16.845292857275904,21.279257143003495,17.349892857275904,20.640957143003494,17.384592857275905L20.511957143003492,17.387292857275902L16.454457143003495,17.386492857275904L16.265157143003492,17.395092857275902C15.763557143003494,17.440392857275903,15.292557143003494,17.6649928572759,14.940657143003493,18.031092857275905L12.870057143003493,20.184592857275902L12.768357143003493,20.279992857275904C12.557357143003493,20.458092857275904,12.303457143003493,20.559692857275902,12.025657143003494,20.576792857275905L11.865257143003493,20.580192857275904L11.751057143003493,20.571892857275902C11.518957143003494,20.541192857275902,11.269057143003494,20.426092857275904,11.063857143003494,20.234192857275904L10.958157143003493,20.127492857275904L8.992647143003493,18.042692857275902L8.854807143003493,17.909392857275904C8.472787143003494,17.572192857275905,7.979087143003493,17.383792857275903,7.465177143003493,17.383792857275903L3.4017871430034936,17.383792857275903L3.2746371430034937,17.377592857275904C2.6465971430034934,17.315392857275903,2.1419471430034935,16.797892857275905,2.1073071430034935,16.159592857275904L2.1045871430034935,16.030592857275902L2.1053571430034936,3.409712857275903L2.1116271430034934,3.282562857275903C2.1738171430034936,2.654522857275903,2.6913171430034937,2.149882857275903,3.3295771430034935,2.1152328572759034Z" fill-rule="evenodd" fill="#333333" fill-opacity="1"/></g><g><path d="M7.545241029235839,8.261392067382813C8.01943702923584,7.921870067382812,8.67908902923584,8.031044967382812,9.01860902923584,8.505241067382812C9.88843902923584,9.720099067382812,10.85964902923584,10.280759067382812,11.999999029235841,10.280759067382812C13.14034902923584,10.280759067382812,14.11155902923584,9.720099067382812,14.981389029235839,8.505241067382812C15.32091902923584,8.031044967382812,15.98056902923584,7.921870067382812,16.454759029235838,8.261392067382813C16.92895902923584,8.600915067382813,17.03812902923584,9.260559067382813,16.69860902923584,9.734759067382813C15.45218902923584,11.475579067382812,13.86339902923584,12.392759067382812,11.999999029235841,12.392759067382812C10.136599029235839,12.392759067382812,8.54780902923584,11.475579067382812,7.30139202923584,9.734759067382813C6.96187002923584,9.260559067382813,7.07104492923584,8.600915067382813,7.545241029235839,8.261392067382813Z" fill="#333333" fill-opacity="1"/></g></g></g></svg>