<svg xmlns="http://www.w3.org/2000/svg" xmlns:xlink="http://www.w3.org/1999/xlink" fill="none" version="1.1" width="26.349609375" height="23.263671875" viewBox="0 0 26.349609375 23.263671875"><g><g><g><path d="M3.744138136920929,0.30878907442092896C3.744138136920929,0.30878907442092896,19.30367813692093,0.30878907442092896,19.30367813692093,0.30878907442092896C21.19387813692093,0.30878907442092896,22.72737813692093,1.793909074420929,22.72737813692093,3.615239074420929C22.72737813692093,3.615239074420929,22.72737813692093,6.638669074420929,22.72737813692093,6.638669074420929C22.72737813692093,7.199549074420929,22.27277813692093,7.6540990744209285,21.71187813692093,7.6540990744209285C21.15107813692093,7.6540990744209285,20.69647813692093,7.199549074420929,20.69647813692093,6.638669074420929C20.69647813692093,6.638669074420929,20.69647813692093,3.615239074420929,20.69647813692093,3.615239074420929C20.69647813692093,2.904829074420929,20.065278136920927,2.342579074420929,19.30367813692093,2.342579074420929C19.30367813692093,2.342579074420929,3.744138136920929,2.342579074420929,3.744138136920929,2.342579074420929C2.982578136920929,2.342579074420929,2.351368136920929,2.904829074420929,2.351368136920929,3.615239074420929C2.351368136920929,3.615239074420929,2.351368136920929,19.956989074420928,2.351368136920929,19.956989074420928C2.351368136920929,20.667489074420928,2.982578136920929,21.22968907442093,3.744138136920929,21.22968907442093C3.744138136920929,21.22968907442093,19.30367813692093,21.22968907442093,19.30367813692093,21.22968907442093C20.06327813692093,21.22968907442093,20.69647813692093,20.66668907442093,20.69647813692093,19.956989074420928C20.69647813692093,19.956989074420928,20.69647813692093,16.71968907442093,20.69647813692093,16.71968907442093C20.69647813692093,16.158889074420927,21.15107813692093,15.70428907442093,21.71187813692093,15.70428907442093C22.27277813692093,15.70428907442093,22.72737813692093,16.158889074420927,22.72737813692093,16.71968907442093C22.72737813692093,16.71968907442093,22.72737813692093,19.956989074420928,22.72737813692093,19.956989074420928C22.72737813692093,21.77778907442093,21.191578136920928,23.263489074420928,19.30077813692093,23.263489074420928C19.30077813692093,23.263489074420928,3.744138136920929,23.263489074420928,3.744138136920929,23.263489074420928C1.853308136920929,23.263489074420928,0.31757813692092896,21.77778907442093,0.31757813692092896,19.956989074420928C0.31757813692092896,19.956989074420928,0.31757813692092896,3.615239074420929,0.31757813692092896,3.615239074420929C0.31757813692092896,1.794529074420929,1.853308136920929,0.30878907442092896,3.744138136920929,0.30878907442092896Z" fill="#333333" fill-opacity="1"/></g><g><path d="M26.3496484375,10.016360190734863C26.3496484375,8.104550190734864,24.6796484375,6.550000190734863,22.6259484375,6.550000190734863L13.9042984375,6.550000190734863C10.7958984375,6.550000190734863,8.2646484375,8.906360190734864,8.2646484375,11.800000190734863C8.2646484375,14.693640190734863,10.7958984375,17.050000190734863,13.9042984375,17.050000190734863L22.6259484375,17.050000190734863C24.6796484375,17.050000190734863,26.3496484375,15.495450190734863,26.3496484375,13.586360190734863L26.3496484375,10.016360190734863ZM13.9042984375,8.550000190734863L22.6259484375,8.550000190734863L22.787048437499998,8.556310190734862C23.6861484375,8.627180190734864,24.3496484375,9.285380190734863,24.3496484375,10.016360190734863L24.3496484375,13.586360190734863L24.3428484375,13.714090190734863C24.2662484375,14.432560190734863,23.5511484375,15.050000190734863,22.6259484375,15.050000190734863L13.9042984375,15.050000190734863L13.7023184375,15.045070190734863C11.7645184375,14.950100190734863,10.2646484375,13.497280190734863,10.2646484375,11.800000190734863C10.2646484375,10.044200190734863,11.8697384375,8.550000190734863,13.9042984375,8.550000190734863Z" fill-rule="evenodd" fill="#333333" fill-opacity="1"/></g><g><path d="M12.609375,11.785939809265138C12.609374999999998,12.523759809265137,13.207495,13.121879809265137,13.945315,13.121879809265137C14.683135,13.121879809265137,15.281255,12.523759809265137,15.281255,11.785939809265138C15.281255,11.048119809265136,14.683135,10.449999809265137,13.945315,10.449999809265137C13.207495,10.449999809265137,12.609375000000002,11.048119809265136,12.609375000000002,11.785939809265138C12.609375000000002,11.785939809265138,12.609375,11.785939809265138,12.609375,11.785939809265138Z" fill="#333333" fill-opacity="1"/></g></g></g></svg>