<svg xmlns="http://www.w3.org/2000/svg" xmlns:xlink="http://www.w3.org/1999/xlink" fill="none" version="1.1" width="24" height="24" viewBox="0 0 24 24"><g><g></g><g><path d="M16.241264260864256,3.010653495788574L7.7925942608642575,3.010653495788574C7.232844260864258,3.0105740015885742,6.716054260864258,3.3106874957885744,6.438694260864258,3.796887495788574L2.2149312608642577,11.199483495788574C1.9419086608642577,11.678093495788573,1.9419086608642577,12.265293495788574,2.2149312608642577,12.743903495788574L6.438694260864258,20.146453495788574C6.716054260864258,20.632653495788574,7.232844260864258,20.932853495788574,7.7925942608642575,20.932753495788575L16.240864260864257,20.932753495788575C16.799864260864258,20.932753495788575,17.31606426086426,20.633253495788573,17.59366426086426,20.148053495788574L21.827564260864257,12.745463495788574C22.101764260864257,12.266053495788574,22.101764260864257,11.677333495788574,21.827564260864257,11.197923495788574L17.59366426086426,3.7953284957885742C17.316164260864255,3.310212495788574,16.800164260864257,3.010813761788574,16.241264260864256,3.010653495788574ZM7.792574260864257,4.569003495788574L16.240864260864257,4.569003495788574L20.47476426086426,11.971603495788575L16.240864260864257,19.374153495788573L7.792574260864257,19.374153495788573L3.5684242608642576,11.971603495788575L7.792574260864257,4.569003495788574ZM12.021864260864257,8.465243495788574C10.769064260864258,8.465243495788574,9.611474260864258,9.133573495788575,8.985104260864258,10.218493495788575C8.358724260864257,11.303403495788574,8.358724260864257,12.640073495788574,8.985104260864258,13.724953495788574C9.611474260864258,14.809853495788575,10.769064260864258,15.478253495788573,12.021864260864257,15.478253495788573C13.958364260864258,15.478253495788573,15.528264260864258,13.908353495788575,15.528264260864258,11.971733495788575C15.528264260864258,10.035153495788574,13.958364260864258,8.465243495788574,12.021864260864257,8.465243495788574ZM12.021864260864257,10.023593495788575C12.717764260864257,10.023593495788575,13.360864260864258,10.394893495788574,13.708864260864258,10.997623495788574C14.056864260864257,11.600343495788573,14.056864260864257,12.342943495788575,13.708864260864258,12.945673495788574C13.360864260864258,13.548353495788573,12.717764260864257,13.919653495788575,12.021864260864257,13.919653495788575C10.945934260864258,13.919653495788575,10.073764260864257,13.047553495788573,10.073764260864257,11.971643495788575C10.073764260864257,10.895763495788575,10.945934260864258,10.023593495788575,12.021864260864257,10.023593495788575Z" fill-rule="evenodd" fill="#FFFFFF" fill-opacity="1"/></g></g></svg>