<svg xmlns="http://www.w3.org/2000/svg" xmlns:xlink="http://www.w3.org/1999/xlink" fill="none" version="1.1" width="24.793365478515625" height="24.5" viewBox="0 0 24.793365478515625 24.5"><g><g><g><path d="M18.3728,2.1094999999999997C16.0323,0.7514430000000001,13.3161,0.23656300000000002,10.6626,0.62683C9.90446,0.73834,8.87708,1.0618020000000001,7.58281,1.59741C7.54486,1.61315,7.50799,1.63118,7.47241,1.65142C6.99971,1.92031,6.83449,2.52149,7.10338,2.99418C7.41315,3.53874,8.07838,3.76962,8.6589,3.53404C9.60185,3.1514,10.3589,2.91626,10.932,2.82881C13.7764,2.39481,16.6822,3.24167,18.8591,5.17767C21.9107,7.89169,22.949,12.217,21.4898,16.0163L21.3785,16.293300000000002L21.235,16.3416L19.8906,15.5625L20.0771,20.9221L24.7934,18.4051L23.3343,17.56L23.2929,17.4313C25.7677,11.9374,23.7745,5.42763,18.6456,2.27247L18.3728,2.1094999999999997ZM4.71626,4.077640000000001L0,6.59459L1.4612,7.43978L1.50269,7.56851C-1.01553,13.1588,1.09236,19.8009,6.42282,22.8903C8.87707,24.3143,11.7421,24.8097,14.5107,24.3111C15.1811,24.1904,16.0833,23.8908,17.2155,23.4121C17.2512,23.397,17.2861,23.3798,17.3198,23.3606C17.7968,23.0893,17.9635,22.4826,17.6922,22.0056C17.3816,21.4596,16.716,21.2263,16.1324,21.4587C15.0791,21.8784,14.2368,22.128,13.6033,22.2071C10.8389,22.5526,8.04482,21.6972,5.93652,19.8222C2.88517,17.1084,1.84643,12.7831,3.30468,8.98467L3.41585,8.7077L3.5594,8.65942L4.90281,9.43725L4.71626,4.077640000000001ZM13.9837,8.27331C14.3499,7.98806,14.8843,8.010729999999999,15.2238,8.34204L15.2991,8.42475C15.5906,8.78642,15.5664,9.31246,15.2264,9.64686L13.7815,11.068L13.842,11.2108L15.4578,11.2108L15.5603,11.2162C16.0312,11.2662,16.3978,11.657,16.3978,12.1317C16.3978,12.6402,15.977,13.0525,15.4578,13.0525L13.4192,13.0525L13.3337,13.1362L13.3337,14.1407L13.4192,14.2245L15.4578,14.2245L15.5603,14.2299C16.0312,14.2799,16.3978,14.6706,16.3978,15.1453C16.3978,15.6538,15.977,16.0661,15.4578,16.0661L13.4192,16.0661L13.3337,16.1498L13.3337,17.1583L13.3282,17.2582C13.2774,17.7176,12.8802,18.0752,12.3978,18.0752C11.8809,18.0752,11.4619,17.6647,11.4619,17.1583L11.4619,16.1498L11.3764,16.0661L9.33775,16.0661L9.23534,16.0607C8.76439,16.0107,8.3978,15.6199,8.3978,15.1453C8.3978,14.6367,8.81863,14.2245,9.33775,14.2245L11.3764,14.2245L11.4619,14.1407L11.4619,13.1362L11.3764,13.0525L9.33775,13.0525L9.23534,13.0471C8.76439,12.9971,8.3978,12.6063,8.3978,12.1317C8.3978,11.6231,8.81863,11.2108,9.33775,11.2108L10.9536,11.2108L11.0141,11.068L9.56941,9.64711L9.49654,9.56668C9.20508,9.20481,9.22956,8.67863,9.56988,8.34439C9.90848,8.01184,10.4431,7.98745,10.8123,8.27348L10.8944,8.344999999999999L12.3372,9.76476L12.4583,9.76477L13.9023,8.3446L13.9837,8.27331Z" fill-rule="evenodd" fill="#333333" fill-opacity="1"/></g></g></g></svg>