<svg xmlns="http://www.w3.org/2000/svg" xmlns:xlink="http://www.w3.org/1999/xlink" fill="none" version="1.1" width="7.48095703125" height="9" viewBox="0 0 7.48095703125 9"><g><g><path d="M7.480925351227224,0.917969C7.480925351227224,0.411562,7.069925351227224,0.000564557,6.563525351227224,0.000564557L0.9173903512272239,0C0.4109823512272239,0,-0.000014648772776126862,0.410997,-0.000014648772776126862,0.917405L-0.000014648772776126862,1.2838C-0.000014648772776126862,1.49209,0.07086685122722387,1.69417,0.20096735122722387,1.85683L2.212485351227224,4.37136C2.2424453512272238,4.40887,2.2587753512272237,4.45546,2.2587753512272237,4.50347L2.2587753512272237,7.34375C2.2588453512272237,7.69111,2.4550853512272237,8.00865,2.765745351227224,8.16405L4.303605351227223,8.93298C4.500455351227224,9.03138,4.734225351227224,9.02086,4.921435351227224,8.90517C5.108655351227224,8.78948,5.222645351227224,8.58511,5.222695351227224,8.36504L5.222695351227224,4.50347C5.222705351227224,4.45546,5.239025351227224,4.40887,5.268995351227224,4.37136L7.279945351227224,1.85739C7.409795351227224,1.6948,7.480925351227224,1.49269,7.480925351227224,1.28493L7.480925351227224,0.917969ZM0.9998633512272239,1L6.480865351227224,1L6.480865351227224,1.254L4.488105351227224,3.74671L4.4087553512272235,3.85841C4.2876253512272235,4.05105,4.222745351227224,4.27436,4.222715351227224,4.50335L4.2218653512272235,7.774L3.257865351227224,7.292L3.258795351227224,4.50347L3.251065351227224,4.36691C3.225455351227224,4.14114,3.1367553512272237,3.92617,2.993835351227224,3.74725L0.9998633512272239,1.255L0.9998633512272239,1Z" fill-rule="evenodd" fill="#666666" fill-opacity="1"/></g></g></svg>