<svg xmlns="http://www.w3.org/2000/svg" xmlns:xlink="http://www.w3.org/1999/xlink" fill="none" version="1.1" width="6" height="8.5" viewBox="0 0 6 8.5"><g><g><path d="M1.076,5C2.164,5,3.836,5,4.924,5C5.35117,5,5.57251,5.498735,5.29451,5.823071C4.69412,6.52353,3.855,7.5024999999999995,3.37558,8.06182C3.17603,8.29463,2.82397,8.29463,2.62442,8.06182C2.145,7.5024999999999995,1.30588,6.52353,0.70549,5.823071C0.427487,5.498735,0.648827,5,1.076,5" fill-rule="evenodd" fill="#666666" fill-opacity="1"/></g><g transform="matrix(1,0,0,-1,0,7)"><path d="M1.076,3.5C2.164,3.5,3.836,3.5,4.924,3.5C5.35117,3.5,5.57251,3.998735,5.29451,4.323071C4.69412,5.02353,3.855,6.0024999999999995,3.37558,6.56182C3.17603,6.79463,2.82397,6.79463,2.62442,6.56182C2.145,6.0024999999999995,1.30588,5.02353,0.70549,4.323071C0.427487,3.998735,0.648827,3.5,1.076,3.5" fill-rule="evenodd" fill="#666666" fill-opacity="1"/></g></g></svg>