<svg xmlns="http://www.w3.org/2000/svg" xmlns:xlink="http://www.w3.org/1999/xlink" fill="none" version="1.1" width="125.000244140625" height="124.968994140625" viewBox="0 0 125.000244140625 124.968994140625"><g><g><path d="M29.374368063964845,105.1568538696289C29.374368063964845,105.1568538696289,19.812828063964844,95.59535386962891,19.812828063964844,95.59535386962891C19.812828063964844,95.59535386962891,34.765528063964844,80.6436538696289,34.765528063964844,80.6436538696289C34.765528063964844,80.6436538696289,44.32602806396484,90.20424386962891,44.32602806396484,90.20424386962891C44.32602806396484,90.20424386962891,29.374368063964845,105.1568538696289,29.374368063964845,105.1568538696289Z" fill="#EBF5F3" fill-opacity="1"/></g><g><path d="M38.24067665771484,94.55587762451172C38.24067665771484,94.55587762451172,30.413876657714844,86.72907762451172,30.413876657714844,86.72907762451172C28.567558657714844,84.88177762451171,28.567558657714844,81.88819762451172,30.413876657714844,80.04188762451172C30.413876657714844,80.04188762451172,37.073376657714846,73.38237762451172,37.073376657714846,73.38237762451172C37.073376657714846,73.38237762451172,51.58733665771484,87.89637762451171,51.58733665771484,87.89637762451171C51.58733665771484,87.89637762451171,44.92783665771484,94.55587762451172,44.92783665771484,94.55587762451172C43.08153665771484,96.40217762451172,40.08793665771484,96.40217762451172,38.24067665771484,94.55587762451172C38.24067665771484,94.55587762451172,38.24067665771484,94.55587762451172,38.24067665771484,94.55587762451172Z" fill="#A2C3B8" fill-opacity="1"/></g><g><path d="M2.577075676265573,123.30241495361328C2.577075676265573,123.30241495361328,1.667265676265573,122.39171495361327,1.667265676265573,122.39171495361327C-0.5557483237344268,120.16963495361328,-0.5557483237344268,116.56665495361328,1.667265676265573,114.34459495361328C1.667265676265573,114.34459495361328,3.816845676265573,112.19501495361328,3.816845676265573,112.19501495361328C3.816845676265573,112.19501495361328,12.774705676265572,121.15287495361328,12.774705676265572,121.15287495361328C12.774705676265572,121.15287495361328,10.625105676265573,123.30241495361328,10.625105676265573,123.30241495361328C8.402115676265574,125.52451495361328,4.799135676265573,125.52451495361328,2.577075676265573,123.30241495361328C2.577075676265573,123.30241495361328,2.577075676265573,123.30241495361328,2.577075676265573,123.30241495361328Z" fill="#6D8C82" fill-opacity="1"/></g><g><path d="M6.424191501655579,121.6364115966797C6.424191501655579,121.6364115966797,3.3333315016555787,118.54551159667969,3.3333315016555787,118.54551159667969C0.7994235016555786,116.01161159667969,0.7994235016555786,111.90411159667968,3.3333315016555787,109.3702115966797C3.3333315016555787,109.3702115966797,15.462201501655578,97.24044159667969,15.462201501655578,97.24044159667969C17.996101501655577,94.70653359667969,22.10360150165558,94.70653359667969,24.637501501655578,97.24044159667969C24.637501501655578,97.24044159667969,27.72830150165558,100.3313015966797,27.72830150165558,100.3313015966797C30.26220150165558,102.86522159667969,30.26220150165558,106.97361159667969,27.72830150165558,109.50751159667969C27.72830150165558,109.50751159667969,15.59950150165558,121.6364115966797,15.59950150165558,121.6364115966797C13.065601501655578,124.17031159667968,8.95811150165558,124.17031159667968,6.424191501655579,121.6364115966797C6.424191501655579,121.6364115966797,6.424191501655579,121.6364115966797,6.424191501655579,121.6364115966797Z" fill="#A2C3B8" fill-opacity="1"/></g><g><path d="M125.00070440673828,50.2868Q125.00070440673828,51.5212,124.93970440673829,52.7542Q124.87870440673828,53.9872,124.75770440673828,55.2157Q124.63670440673827,56.4443,124.45570440673828,57.6654Q124.27480440673828,58.8865,124.03400440673828,60.0972Q123.79320440673828,61.308,123.49320440673829,62.5054Q123.19320440673827,63.7029,122.83490440673827,64.8842Q122.47660440673828,66.0656,122.06070440673828,67.2279Q121.64480440673829,68.3902,121.17240440673828,69.5307Q120.70000440673829,70.6712,120.17220440673829,71.7871Q119.64440440673827,72.9031,119.06240440673828,73.9918Q118.48050440673828,75.0805,117.84590440673828,76.1393Q117.21120440673828,77.1982,116.52540440673828,78.2246Q115.83960440673827,79.251,115.10420440673828,80.2425Q114.36880440673828,81.2341,113.58570440673829,82.1883Q112.80250440673828,83.1426,111.97350440673829,84.0573Q111.14450440673828,84.972,110.27160440673828,85.8449Q109.39870440673828,86.7178,108.48400440673828,87.5468Q107.56930440673828,88.3758,106.61500440673828,89.159Q105.66080440673828,89.9421,104.66920440673829,90.6775Q103.67770440673829,91.4128,102.65130440673828,92.0987Q101.62490440673828,92.7845,100.56600440673829,93.4192Q99.50720440673828,94.0538,98.41850440673828,94.6357Q97.32980440673828,95.2177,96.21380440673828,95.7455Q95.09790440673828,96.2733,93.95740440673828,96.7457Q92.81690440673827,97.2181,91.65460440673829,97.634Q90.49230440673828,98.0499,89.31090440673829,98.4082Q88.12960440673828,98.7665,86.93220440673828,99.0665Q85.73470440673827,99.3665,84.52390440673828,99.6073Q83.31320440673828,99.8481,82.09210440673829,100.029Q80.87100440673828,100.21,79.64240440673828,100.331Q78.41390440673828,100.452,77.18090440673828,100.513Q75.94790440673827,100.574,74.71350440673828,100.574Q73.47900440673828,100.574,72.24600440673828,100.513Q71.01300440673828,100.452,69.78450440673828,100.331Q68.55600440673828,100.21,67.33490440673827,100.029Q66.11380440673828,99.8481,64.90300440673829,99.6073Q63.69230440673828,99.3665,62.49480440673828,99.0665Q61.297304406738284,98.7665,60.116004406738284,98.4082Q58.934704406738284,98.0499,57.77240440673828,97.634Q56.61010440673828,97.2181,55.469604406738284,96.7457Q54.32910440673828,96.2733,53.21310440673828,95.7455Q52.097204406738285,95.2177,51.00850440673828,94.6357Q49.919704406738276,94.0538,48.860904406738285,93.4192Q47.80210440673828,92.7845,46.77560440673828,92.0987Q45.749204406738286,91.4129,44.757704406738284,90.6775Q43.76610440673828,89.9421,42.81190440673828,89.159Q41.85760440673828,88.3758,40.94290440673828,87.5468Q40.02830440673828,86.7178,39.155404406738285,85.8449Q38.28250440673828,84.972,37.45340440673828,84.0573Q36.62440440673828,83.1426,35.84130440673828,82.1883Q35.05810440673828,81.2341,34.32276440673828,80.2425Q33.58738440673828,79.251,32.901554406738285,78.2246Q32.21571440673828,77.1982,31.58107440673828,76.1393Q30.94642440673828,75.0805,30.36450440673828,73.9918Q29.78257440673828,72.9031,29.25477440673828,71.7871Q28.726964406738283,70.6712,28.254554406738283,69.5307Q27.782144406738283,68.3902,27.36626440673828,67.2279Q26.95038440673828,66.0656,26.592034406738282,64.8842Q26.23368440673828,63.7029,25.93373440673828,62.5055Q25.633784406738283,61.308,25.392950406738283,60.0972Q25.15211740673828,58.8865,24.97098240673828,57.6654Q24.78984840673828,56.4443,24.668849406738282,55.2157Q24.54784940673828,53.9872,24.48727700673828,52.7542Q24.42670440673828,51.5212,24.42670440673828,50.2868Q24.42670440673828,49.0523,24.48727700673828,47.8193Q24.54784940673828,46.5863,24.668849406738282,45.3578Q24.78984840673828,44.1293,24.97098240673828,42.9082Q25.15211740673828,41.6871,25.392950406738283,40.4763Q25.633784406738283,39.2656,25.93373440673828,38.0681Q26.23368440673828,36.8706,26.592034406738282,35.6893Q26.95038440673828,34.508,27.36626440673828,33.3457Q27.782144406738283,32.1834,28.254554406738283,31.0429Q28.726964406738283,29.9024,29.25477440673828,28.7864Q29.78257440673828,27.6705,30.36450440673828,26.5818Q30.94642440673828,25.493,31.58107440673828,24.4342Q32.21571440673828,23.3754,32.901554406738285,22.3489Q33.58738440673828,21.3225,34.32276440673828,20.331Q35.05810440673828,19.3394,35.84130440673828,18.3852Q36.62440440673828,17.4309,37.45340440673828,16.5162Q38.28250440673828,15.6016,39.155404406738285,14.7287Q40.02830440673828,13.8558,40.94290440673828,13.0267Q41.85760440673828,12.1977,42.81190440673828,11.4146Q43.76610440673828,10.6314,44.757704406738284,9.89606Q45.749204406738286,9.16068,46.77560440673828,8.47485Q47.80210440673828,7.78901,48.860904406738285,7.15437Q49.919704406738276,6.51972,51.00850440673828,5.9378Q52.097204406738285,5.35587,53.21310440673828,4.82807Q54.32910440673828,4.30026,55.469604406738284,3.82785Q56.61010440673828,3.35544,57.77240440673828,2.93956Q58.934704406738284,2.52368,60.116004406738284,2.16533Q61.297304406738284,1.80698,62.49480440673828,1.50703Q63.69230440673828,1.20708,64.90300440673829,0.966246Q66.11380440673828,0.725413,67.33490440673827,0.544278Q68.55600440673828,0.363144,69.78450440673828,0.242145Q71.01300440673828,0.121145,72.24600440673828,0.0605726Q73.47900440673828,0,74.71350440673828,0Q75.94790440673827,0,77.18090440673828,0.0605726Q78.41390440673828,0.121145,79.64240440673828,0.242145Q80.87100440673828,0.363144,82.09210440673829,0.544278Q83.31320440673828,0.725413,84.52390440673828,0.966246Q85.73470440673827,1.20708,86.93210440673829,1.50703Q88.12960440673828,1.80698,89.31090440673829,2.16533Q90.49230440673828,2.52368,91.65460440673829,2.93956Q92.81690440673827,3.35544,93.95740440673828,3.82785Q95.09790440673828,4.30026,96.21380440673828,4.82807Q97.32980440673828,5.35587,98.41850440673828,5.9378Q99.50720440673828,6.51972,100.56600440673829,7.15437Q101.62490440673828,7.78901,102.65130440673828,8.47485Q103.67770440673829,9.16068,104.66920440673829,9.89606Q105.66080440673828,10.6314,106.61500440673828,11.4146Q107.56930440673828,12.1977,108.48400440673828,13.0267Q109.39870440673828,13.8558,110.27160440673828,14.7287Q111.14450440673828,15.6016,111.97350440673829,16.5162Q112.80250440673828,17.4309,113.58570440673829,18.3852Q114.36880440673828,19.3394,115.10420440673828,20.331Q115.83950440673829,21.3225,116.52540440673828,22.3489Q117.21120440673828,23.3754,117.84590440673828,24.4342Q118.48050440673828,25.493,119.06240440673828,26.5818Q119.64440440673827,27.6705,120.17220440673829,28.7864Q120.70000440673829,29.9024,121.17240440673828,31.0429Q121.64480440673829,32.1834,122.06070440673828,33.3457Q122.47660440673828,34.508,122.83490440673827,35.6893Q123.19320440673827,36.8706,123.49320440673829,38.0681Q123.79320440673828,39.2656,124.03400440673828,40.4763Q124.27480440673828,41.6871,124.45570440673828,42.9082Q124.63670440673827,44.1293,124.75770440673828,45.3578Q124.87870440673828,46.5863,124.93970440673829,47.8193Q125.00070440673828,49.0523,125.00070440673828,50.2868Z" fill="#C6DCD5" fill-opacity="1"/></g><g><path d="M117.46907048339844,50.28676607666016Q117.46907048339844,51.336366076660155,117.41757048339844,52.38466607666015Q117.36607048339843,53.433066076660154,117.26317048339844,54.47756607666015Q117.16037048339844,55.52206607666016,117.00627048339844,56.560266076660156Q116.85227048339844,57.598566076660155,116.64757048339844,58.62796607666016Q116.44277048339843,59.65736607666015,116.18777048339844,60.675566076660154Q115.93267048339844,61.69366607666016,115.62807048339843,62.698066076660155Q115.32337048339843,63.70246607666016,114.96977048339843,64.69066607666016Q114.61617048339843,65.67896607666015,114.21447048339844,66.64866607666016Q113.81287048339844,67.61836607666015,113.36407048339844,68.56716607666016Q112.91537048339843,69.51596607666016,112.42057048339844,70.44156607666017Q111.92577048339844,71.36726607666016,111.38617048339843,72.26756607666016Q110.84657048339844,73.16776607666016,110.26347048339844,74.04046607666015Q109.68037048339843,74.91316607666016,109.05507048339844,75.75626607666015Q108.42987048339843,76.59926607666016,107.76397048339844,77.41066607666015Q107.09817048339843,78.22196607666015,106.39327048339844,78.99966607666016Q105.68847048339843,79.77736607666016,104.94627048339844,80.51956607666015Q104.20407048339844,81.26166607666016,103.42637048339844,81.96656607666016Q102.64867048339843,82.67146607666015,101.83737048339843,83.33726607666016Q101.02597048339844,84.00316607666015,100.18297048339844,84.62836607666016Q99.33987048339844,85.25366607666015,98.46717048339843,85.83676607666015Q97.59447048339844,86.41986607666016,96.69427048339844,86.95946607666015Q95.79397048339844,87.49906607666016,94.86837048339844,87.99386607666015Q93.94267048339844,88.48866607666015,92.99387048339844,88.93736607666015Q92.04507048339843,89.38616607666016,91.07537048339844,89.78776607666016Q90.10567048339843,90.18946607666015,89.11737048339845,90.54306607666015Q88.12917048339844,90.89666607666015,87.12477048339844,91.20136607666015Q86.12037048339843,91.50596607666016,85.10227048339843,91.76106607666016Q84.08407048339843,92.01606607666015,83.05467048339844,92.22086607666016Q82.02527048339843,92.42556607666016,80.98697048339844,92.57956607666016Q79.94877048339845,92.73366607666016,78.90427048339843,92.83646607666016Q77.85977048339844,92.93936607666015,76.81137048339843,92.99086607666015Q75.76307048339844,93.04236607666016,74.71347048339844,93.04236607666016Q73.66387048339844,93.04236607666016,72.61557048339844,92.99086607666015Q71.56727048339843,92.93936607666015,70.52267048339843,92.83646607666016Q69.47817048339843,92.73366607666016,68.43997048339844,92.57956607666016Q67.40167048339845,92.42556607666016,66.37227048339844,92.22086607666016Q65.34287048339843,92.01606607666015,64.32467048339844,91.76106607666016Q63.30657048339844,91.50596607666016,62.30217048339844,91.20136607666015Q61.29777048339844,90.89666607666015,60.30957048339844,90.54306607666015Q59.321270483398436,90.18946607666015,58.35157048339843,89.78776607666016Q57.38187048339844,89.38616607666016,56.43307048339844,88.93736607666015Q55.48427048339843,88.48866607666015,54.55857048339844,87.99386607666015Q53.63297048339844,87.49906607666016,52.73267048339844,86.95946607666015Q51.83247048339844,86.41986607666016,50.95977048339844,85.83676607666015Q50.087070483398435,85.25366607666015,49.24397048339844,84.62836607666016Q48.40097048339844,84.00316607666015,47.58957048339844,83.33726607666016Q46.77827048339844,82.67146607666015,46.000570483398434,81.96656607666016Q45.22287048339844,81.26176607666015,44.48067048339844,80.51956607666015Q43.73857048339843,79.77736607666016,43.03367048339844,78.99966607666016Q42.328770483398436,78.22196607666015,41.66294048339844,77.41066607666015Q40.99709048339844,76.59926607666016,40.37185048339844,75.75626607666015Q39.746610483398435,74.91316607666016,39.163490483398434,74.04046607666015Q38.58037048339844,73.16776607666016,38.04077048339844,72.26756607666016Q37.50117048339844,71.36726607666016,37.00640048339844,70.44166607666016Q36.51162048339844,69.51596607666016,36.06287048339844,68.56716607666016Q35.614110483398434,67.61836607666015,35.212450483398435,66.64866607666016Q34.81078048339844,65.67896607666015,34.457190483398435,64.69066607666016Q34.103590483398435,63.70246607666016,33.79891048339844,62.698066076660155Q33.49423048339844,61.69366607666016,33.239200483398434,60.675566076660154Q32.98417048339844,59.65736607666015,32.77940748339844,58.62796607666016Q32.574642483398435,57.598566076660155,32.420635483398435,56.560266076660156Q32.266628483398435,55.52206607666016,32.16375048339844,54.47756607666015Q32.060872483398434,53.433066076660154,32.00937148339844,52.38466607666015Q31.957870483398438,51.336366076660155,31.957870483398438,50.28676607666016Q31.957870483398438,49.23716607666016,32.00937148339844,48.188866076660155Q32.060872483398434,47.14056607666016,32.16375048339844,46.095966076660154Q32.266628483398435,45.051466076660155,32.420635483398435,44.01326607666016Q32.574642483398435,42.97496607666016,32.77940748339844,41.94556607666016Q32.98417048339844,40.916166076660154,33.239200483398434,39.897966076660154Q33.49423048339844,38.87986607666016,33.79891048339844,37.87546607666016Q34.103590483398435,36.871066076660156,34.457190483398435,35.88286607666016Q34.81078048339844,34.894566076660155,35.212450483398435,33.92486607666015Q35.614110483398434,32.955166076660156,36.06287048339844,32.00636607666016Q36.51162048339844,31.057566076660155,37.00640048339844,30.131866076660156Q37.50117048339844,29.206266076660157,38.04077048339844,28.305966076660155Q38.58037048339844,27.405766076660157,39.163490483398434,26.533066076660155Q39.746610483398435,25.660366076660157,40.37185048339844,24.817266076660157Q40.99709048339844,23.974266076660157,41.66294048339844,23.16286607666016Q42.328770483398436,22.351566076660156,43.03367048339844,21.573866076660156Q43.73857048339843,20.796166076660157,44.48067048339844,20.053966076660156Q45.22287048339844,19.311866076660156,46.000570483398434,18.606966076660157Q46.77827048339844,17.902066076660155,47.58957048339844,17.236236076660155Q48.40097048339844,16.570386076660157,49.24397048339844,15.945146076660157Q50.087070483398435,15.319906076660157,50.95977048339844,14.736786076660156Q51.83247048339844,14.153666076660155,52.73267048339844,13.614066076660157Q53.63297048339844,13.074466076660157,54.55857048339844,12.579696076660156Q55.48427048339843,12.084916076660157,56.43307048339844,11.636166076660157Q57.38187048339844,11.187406076660157,58.35157048339843,10.785746076660157Q59.321270483398436,10.384076076660156,60.30957048339844,10.030486076660157Q61.29777048339844,9.676886076660157,62.30217048339844,9.372206076660156Q63.30657048339844,9.067526076660156,64.32467048339844,8.812496076660157Q65.34287048339843,8.557466076660155,66.37227048339844,8.352703076660156Q67.40167048339845,8.147938076660155,68.43997048339844,7.993931076660156Q69.47817048339843,7.839924076660156,70.52267048339843,7.737046076660156Q71.56727048339843,7.634168076660156,72.61557048339844,7.582667076660156Q73.66387048339844,7.531166076660156,74.71347048339844,7.531166076660156Q75.76307048339844,7.531166076660156,76.81137048339843,7.582667076660156Q77.85977048339844,7.634168076660156,78.90427048339843,7.737046076660156Q79.94877048339845,7.839924076660156,80.98697048339844,7.993931076660156Q82.02527048339843,8.147938076660155,83.05467048339844,8.352703076660156Q84.08407048339843,8.557466076660155,85.10227048339843,8.812496076660157Q86.12037048339843,9.067526076660156,87.12477048339844,9.372206076660156Q88.12917048339844,9.676886076660157,89.11737048339845,10.030486076660157Q90.10567048339843,10.384076076660156,91.07537048339844,10.785746076660157Q92.04507048339843,11.187406076660157,92.99387048339844,11.636166076660157Q93.94267048339844,12.084916076660157,94.86827048339845,12.579696076660156Q95.79397048339844,13.074466076660157,96.69427048339844,13.614066076660157Q97.59447048339844,14.153666076660155,98.46717048339843,14.736786076660156Q99.33987048339844,15.319906076660157,100.18297048339844,15.945146076660157Q101.02597048339844,16.570386076660157,101.83737048339843,17.236236076660155Q102.64867048339843,17.902066076660155,103.42637048339844,18.606966076660157Q104.20407048339844,19.311866076660156,104.94627048339844,20.053966076660156Q105.68837048339844,20.796166076660157,106.39327048339844,21.573866076660156Q107.09817048339843,22.351566076660156,107.76397048339844,23.16286607666016Q108.42987048339843,23.974266076660157,109.05507048339844,24.817266076660157Q109.68037048339843,25.660366076660157,110.26347048339844,26.533066076660155Q110.84657048339844,27.405766076660157,111.38617048339843,28.305966076660155Q111.92577048339844,29.206266076660157,112.42057048339844,30.131866076660156Q112.91537048339843,31.057566076660155,113.36407048339844,32.00636607666016Q113.81287048339844,32.955166076660156,114.21447048339844,33.92486607666015Q114.61617048339843,34.894566076660155,114.96977048339843,35.88286607666016Q115.32337048339843,36.871066076660156,115.62807048339843,37.87546607666016Q115.93267048339844,38.87986607666016,116.18777048339844,39.897966076660154Q116.44277048339843,40.916166076660154,116.64757048339844,41.94556607666016Q116.85227048339844,42.97496607666016,117.00627048339844,44.01326607666016Q117.16037048339844,45.051466076660155,117.26317048339844,46.095966076660154Q117.36607048339843,47.14056607666016,117.41757048339844,48.188866076660155Q117.46907048339844,49.23716607666016,117.46907048339844,50.28676607666016Z" fill="#DAE8E3" fill-opacity="1"/></g><g><path d="M113.480544140625,50.7406Q113.480544140625,51.6917,113.433844140625,52.6415Q113.387244140625,53.5914,113.294044140625,54.5379Q113.200744140625,55.4843,113.061244140625,56.4251Q112.921744140625,57.3658,112.736144140625,58.2986Q112.550644140625,59.2313,112.319544140625,60.1538Q112.088444140625,61.0764,111.812444140625,61.9864Q111.536344140625,62.8965,111.215944140625,63.792Q110.895544140625,64.6874,110.531644140625,65.566Q110.167744140625,66.4447,109.761044140625,67.3044Q109.354444140625,68.16409999999999,108.906144140625,69.00280000000001Q108.457844140625,69.8416,107.968944140625,70.65729999999999Q107.480044140625,71.473,106.951644140625,72.2638Q106.423344140625,73.05449999999999,105.856744140625,73.8184Q105.290244140625,74.5823,104.686944140625,75.31739999999999Q104.083644140625,76.0526,103.444944140625,76.7573Q102.806244140625,77.4619,102.133844140625,78.1344Q101.461344140625,78.8069,100.756744140625,79.4455Q100.052044140625,80.0842,99.316944140625,80.6876Q98.581744140625,81.2909,97.817844140625,81.8574Q97.054044140625,82.4239,96.263244140625,82.9523Q95.47254414062499,83.4806,94.656844140625,83.9696Q93.841144140625,84.4585,93.002344140625,84.9068Q92.163644140625,85.3551,91.30394414062499,85.7617Q90.444244140625,86.1684,89.565644140625,86.5323Q88.686944140625,86.8962,87.791544140625,87.2166Q86.896144140625,87.537,85.986044140625,87.8131Q85.076044140625,88.0892,84.153444140625,88.3203Q83.230944140625,88.5513,82.298244140625,88.7369Q81.365444140625,88.9224,80.424744140625,89.062Q79.484044140625,89.2015,78.53764414062499,89.2947Q77.591144140625,89.3879,76.64124414062499,89.4346Q75.69144414062501,89.4813,74.740444140625,89.4813Q73.78934414062499,89.4813,72.83954414062501,89.4346Q71.889644140625,89.3879,70.943244140625,89.2947Q69.996744140625,89.2015,69.056044140625,89.062Q68.115344140625,88.9224,67.182544140625,88.7369Q66.249844140625,88.5513,65.327344140625,88.3203Q64.404844140625,88.0892,63.494744140625,87.8131Q62.584644140625,87.537,61.689244140625,87.2166Q60.793844140625,86.8962,59.915144140625,86.5323Q59.036544140625,86.1684,58.176844140625,85.7617Q57.317144140625004,85.3551,56.478444140625,84.9068Q55.639644140624995,84.4585,54.823944140625,83.9696Q54.008244140624996,83.4806,53.217544140625,82.9523Q52.426744140625004,82.4239,51.662944140625,81.8574Q50.899044140625,81.2909,50.163944140625,80.6876Q49.428744140625,80.0842,48.724144140625,79.4455Q48.019444140625,78.8069,47.346944140625,78.1344Q46.674544140625,77.4619,46.035844140625,76.7573Q45.397174140625,76.0526,44.793854140625,75.31739999999999Q44.190534140625,74.5823,43.624014140625,73.8184Q43.057494140624996,73.05449999999999,42.529134140625,72.2638Q42.000784140625,71.473,41.511864140625,70.65729999999999Q41.022944140625,69.8416,40.574634140625,69.00280000000001Q40.126324140625,68.16409999999999,39.719714140625,67.3044Q39.313104140625,66.4447,38.949164140625,65.566Q38.585224140625,64.6874,38.264834140625,63.792Q37.944444140625,62.8965,37.668384140625,61.9864Q37.392314140625,61.0764,37.161234140625,60.1538Q36.930160140625,59.2313,36.744625140625,58.2986Q36.559091140625,57.3658,36.419548140625,56.4251Q36.280004140625,55.4843,36.186788140625,54.5379Q36.093572540625,53.5914,36.046908340625,52.6415Q36.000244140625,51.6917,36.000244140625,50.7406Q36.000244140625,49.7896,36.046908340625,48.8397Q36.093572540625,47.8898,36.186788140625,46.9434Q36.280004140625,45.9969,36.419548140625,45.0562Q36.559091140625,44.1155,36.744625140625,43.1827Q36.930160140625,42.25,37.161234140625,41.3274Q37.392314140625,40.4049,37.668384140625,39.4948Q37.944444140625,38.5847,38.264834140625,37.6893Q38.585224140625,36.7939,38.949164140625,35.9152Q39.313104140625,35.0366,39.719714140625,34.1769Q40.126324140625,33.3172,40.574634140625,32.4784Q41.022944140625,31.6397,41.511864140625,30.824Q42.000784140625,30.0082,42.529134140625,29.2175Q43.057494140624996,28.4267,43.624014140625,27.6629Q44.190534140625,26.899,44.793854140625,26.163800000000002Q45.397174140625,25.4287,46.035844140625,24.724Q46.674544140625,24.0193,47.346944140625,23.346899999999998Q48.019444140625,22.6744,48.724144140625,22.0357Q49.428744140625,21.39705,50.163944140625,20.79372Q50.899044140625,20.19039,51.662944140625,19.62386Q52.426744140625004,19.05734,53.217544140625,18.52897Q54.008244140624996,18.00061,54.823944140625,17.51168Q55.639644140624995,17.022759999999998,56.478444140625,16.57444Q57.317144140625004,16.12613,58.176844140625,15.71951Q59.036544140625,15.312899999999999,59.915144140625,14.94895Q60.793844140625,14.58501,61.689244140625,14.26462Q62.584644140625,13.94423,63.494744140625,13.66816Q64.404844140625,13.39209,65.327344140625,13.161010000000001Q66.249844140625,12.929927,67.182544140625,12.74439Q68.115344140625,12.558854,69.056044140625,12.419309Q69.996744140625,12.279764,70.943244140625,12.186547Q71.889644140625,12.0933296,72.83954414062501,12.0466648Q73.78934414062499,12,74.740444140625,12Q75.69144414062501,12,76.64124414062499,12.0466648Q77.591144140625,12.0933296,78.53764414062499,12.186547Q79.484044140625,12.279764,80.424744140625,12.419309Q81.365444140625,12.558854,82.298244140625,12.74439Q83.230944140625,12.929927,84.153444140625,13.161010000000001Q85.076044140625,13.39209,85.986044140625,13.66816Q86.896144140625,13.94423,87.791544140625,14.26462Q88.686944140625,14.58501,89.565644140625,14.94895Q90.444244140625,15.312899999999999,91.30394414062499,15.71951Q92.163644140625,16.12613,93.002344140625,16.57444Q93.841144140625,17.022759999999998,94.656844140625,17.51168Q95.47254414062499,18.00061,96.263244140625,18.52897Q97.054044140625,19.05734,97.817844140625,19.62386Q98.581744140625,20.19039,99.316944140625,20.79372Q100.052044140625,21.39705,100.756744140625,22.0357Q101.461344140625,22.6744,102.133844140625,23.346899999999998Q102.806244140625,24.0193,103.444944140625,24.724Q104.083644140625,25.4287,104.686944140625,26.163800000000002Q105.290244140625,26.899,105.856744140625,27.6629Q106.423344140625,28.4267,106.951644140625,29.2175Q107.480044140625,30.0082,107.968944140625,30.824Q108.457844140625,31.6397,108.906144140625,32.4784Q109.354444140625,33.3172,109.761044140625,34.1769Q110.167744140625,35.0366,110.531644140625,35.9152Q110.895544140625,36.7939,111.215944140625,37.6893Q111.536344140625,38.5847,111.812444140625,39.4948Q112.088444140625,40.4049,112.319544140625,41.3274Q112.550644140625,42.25,112.736144140625,43.1827Q112.921744140625,44.1155,113.061244140625,45.0562Q113.200744140625,45.9969,113.294044140625,46.9434Q113.387244140625,47.8898,113.433844140625,48.8397Q113.480544140625,49.7896,113.480544140625,50.7406Z" fill="#FFFFFF" fill-opacity="1"/></g><g><path d="M57.970714140625,32C66.331744140625,32,85.668744140625,32,94.029744140625,32C96.238944140625,32,98.000244140625,33.76334,98.000244140625,35.97248C98.000244140625,38.15252,98.000244140625,40.84748,98.000244140625,43.0275C98.000244140625,45.2367,96.238944140625,47,94.029744140625,47C85.668744140625,47,66.331744140625,47,57.970724140625,47C55.761574140625,47,54.000244140625,45.2367,54.000244140625,43.0275C54.000244140625,40.84748,54.000244140625,38.15252,54.000244140625,35.97248C54.000244140625,33.76334,55.761574140625,32,57.970714140625,32" fill="#C6DCD5" fill-opacity="1"/></g><g><path d="M55.496514140625,55C62.238974140625004,55,89.761544140625,55,96.50394414062501,55C97.332444140625,55,98.000244140625,55.682823,98.000244140625,56.51125C98.000244140625,57.31718,97.332444140625,58,96.50394414062501,58C89.761544140625,58,62.238984140625,58,55.496514140625,58C54.668082140625,58,54.000244140625,57.31718,54.000244140625,56.48875C54.000244140625,55.682823,54.668082140625,55,55.496514140625,55" fill="#EBF5F3" fill-opacity="1"/></g><g><path d="M55.509294140625,63C60.891194140625004,63,79.10924414062501,63,84.491244140625,63C85.319644140625,63,86.000244140625,63.682823,86.000244140625,64.51125C86.000244140625,65.31718,85.319644140625,66,84.491244140625,66C79.10924414062501,66,60.891194140625004,66,55.509294140625,66C54.680863140625,66,54.000244140625,65.31718,54.000244140625,64.48875C54.000244140625,63.682823,54.680863140625,63,55.509294140625,63" fill="#EBF5F3" fill-opacity="1"/></g></g></svg>