<svg xmlns="http://www.w3.org/2000/svg" xmlns:xlink="http://www.w3.org/1999/xlink" fill="none" version="1.1" width="20" height="18" viewBox="0 0 20 18"><g><path d="M3.84822,1.03637C3.74415,0.437945,3.2166,0.000347397,2.59911,0.000258384L0.806682,0L0.661583,0.0127764C0.285322,0.0799216,0,0.403703,0,0.793005C0,1.23103,0.361164,1.58613,0.806682,1.58613L1.77547,1.58613C2.08423,1.58613,2.34805,1.8049,2.40011,2.10412L4.27604,12.8853C4.38017,13.4837,4.90781,13.9213,5.52532,13.9213L17.539,13.9213C18.1674,13.9213,18.7009,13.4686,18.7928,12.8574L19.9864,4.92173C19.9954,4.86138,20,4.80045,20,4.73944C20,4.05123,19.4326,3.49332,18.7326,3.49332L4.81004,3.49332C4.50126,3.49332,4.23743,3.27451,4.18539,2.97526L3.84822,1.03637ZM17.6003,5.07959L5.30266,5.07959C4.95267,5.07959,4.66895,5.35854,4.66895,5.70265L4.67802,5.80772L5.72375,11.8171C5.77582,12.1163,6.03963,12.3351,6.34839,12.3351L16.6977,12.3351C17.0119,12.3351,17.2787,12.1087,17.3246,11.803L18.2272,5.79368C18.2783,5.45326,18.0391,5.13655,17.6929,5.08627L17.6003,5.07959ZM6.92307,18Q6.9911,18,7.05879,17.9935Q7.12648,17.9869,7.1932,17.9739Q7.25991,17.9608,7.32501,17.9414Q7.3901,17.922,7.45294,17.8964Q7.51579,17.8708,7.57578,17.8393Q7.63577,17.8078,7.69233,17.7706Q7.74888,17.7334,7.80147,17.691Q7.85405,17.6486,7.90215,17.6013Q7.95025,17.554,7.9934,17.5023Q8.03655,17.4506,8.07434,17.395Q8.11213,17.3394,8.1442,17.2804Q8.17626,17.2214,8.20229,17.1597Q8.22833,17.0979,8.24807,17.0339Q8.26782,16.9699,8.28109,16.9043Q8.29436,16.8387,8.30103,16.7721Q8.30769,16.7056,8.30769,16.6387Q8.30769,16.5718,8.30103,16.5053Q8.29436,16.4387,8.28109,16.3731Q8.26782,16.3075,8.24807,16.2435Q8.22833,16.1795,8.20229,16.1177Q8.17626,16.0559,8.1442,15.997Q8.11213,15.938,8.07434,15.8824Q8.03655,15.8268,7.9934,15.7751Q7.95025,15.7234,7.90215,15.6761Q7.85405,15.6288,7.80147,15.5864Q7.74888,15.5439,7.69233,15.5068Q7.63577,15.4696,7.57578,15.4381Q7.51579,15.4066,7.45294,15.381Q7.3901,15.3554,7.32501,15.336Q7.25991,15.3165,7.1932,15.3035Q7.12648,15.2905,7.05879,15.2839Q6.9911,15.2773,6.92307,15.2773Q6.85505,15.2773,6.78736,15.2839Q6.71966,15.2905,6.65295,15.3035Q6.58623,15.3165,6.52114,15.336Q6.45605,15.3554,6.3932,15.381Q6.33036,15.4066,6.27037,15.4381Q6.21038,15.4696,6.15382,15.5068Q6.09726,15.5439,6.04468,15.5864Q5.9921,15.6288,5.944,15.6761Q5.8959,15.7234,5.85275,15.7751Q5.80959,15.8268,5.7718,15.8824Q5.73401,15.938,5.70195,15.997Q5.66988,16.0559,5.64385,16.1177Q5.61782,16.1795,5.59807,16.2435Q5.57833,16.3075,5.56506,16.3731Q5.55179,16.4387,5.54512,16.5053Q5.53845,16.5718,5.53845,16.6387Q5.53845,16.7056,5.54512,16.7721Q5.55179,16.8387,5.56506,16.9043Q5.57833,16.9699,5.59807,17.0339Q5.61782,17.0979,5.64385,17.1597Q5.66988,17.2214,5.70195,17.2804Q5.73401,17.3394,5.7718,17.395Q5.80959,17.4506,5.85275,17.5023Q5.8959,17.554,5.944,17.6013Q5.9921,17.6486,6.04468,17.691Q6.09726,17.7334,6.15382,17.7706Q6.21038,17.8078,6.27037,17.8393Q6.33036,17.8708,6.3932,17.8964Q6.45605,17.922,6.52114,17.9414Q6.58623,17.9608,6.65295,17.9739Q6.71966,17.9869,6.78736,17.9935Q6.85505,18,6.92307,18ZM16.1539,18Q16.2219,18,16.2896,17.9935Q16.3573,17.9869,16.424,17.9739Q16.4907,17.9608,16.5558,17.9414Q16.6209,17.922,16.6838,17.8964Q16.7466,17.8708,16.8066,17.8393Q16.8666,17.8078,16.9232,17.7706Q16.9797,17.7334,17.0323,17.691Q17.0849,17.6486,17.133,17.6013Q17.1811,17.554,17.2242,17.5023Q17.2674,17.4506,17.3052,17.395Q17.343,17.3394,17.375,17.2804Q17.4071,17.2214,17.4331,17.1597Q17.4592,17.0979,17.4789,17.0339Q17.4987,16.9699,17.5119,16.9043Q17.5252,16.8387,17.5319,16.7721Q17.5385,16.7056,17.5385,16.6387Q17.5385,16.5718,17.5319,16.5053Q17.5252,16.4387,17.5119,16.3731Q17.4987,16.3075,17.4789,16.2435Q17.4592,16.1795,17.4331,16.1177Q17.4071,16.0559,17.375,15.997Q17.343,15.938,17.3052,15.8824Q17.2674,15.8268,17.2242,15.7751Q17.1811,15.7234,17.133,15.6761Q17.0849,15.6288,17.0323,15.5864Q16.9797,15.5439,16.9232,15.5068Q16.8666,15.4696,16.8066,15.4381Q16.7466,15.4066,16.6838,15.381Q16.6209,15.3554,16.5558,15.336Q16.4907,15.3165,16.424,15.3035Q16.3573,15.2905,16.2896,15.2839Q16.2219,15.2773,16.1539,15.2773Q16.0859,15.2773,16.0182,15.2839Q15.9505,15.2905,15.8838,15.3035Q15.8171,15.3165,15.752,15.336Q15.6869,15.3554,15.624,15.381Q15.5612,15.4066,15.5012,15.4381Q15.4412,15.4696,15.3847,15.5068Q15.3281,15.5439,15.2755,15.5864Q15.2229,15.6288,15.1748,15.6761Q15.1267,15.7234,15.0836,15.7751Q15.0404,15.8268,15.0026,15.8824Q14.9648,15.938,14.9328,15.997Q14.9007,16.0559,14.8747,16.1177Q14.8487,16.1795,14.8289,16.2435Q14.8092,16.3075,14.7959,16.3731Q14.7826,16.4387,14.776,16.5053Q14.7693,16.5718,14.7693,16.6387Q14.7693,16.7056,14.776,16.7721Q14.7826,16.8387,14.7959,16.9043Q14.8092,16.9699,14.8289,17.0339Q14.8487,17.0979,14.8747,17.1597Q14.9007,17.2214,14.9328,17.2804Q14.9648,17.3394,15.0026,17.395Q15.0404,17.4506,15.0836,17.5023Q15.1267,17.554,15.1748,17.6013Q15.2229,17.6486,15.2755,17.691Q15.3281,17.7334,15.3847,17.7706Q15.4412,17.8078,15.5012,17.8393Q15.5612,17.8708,15.624,17.8964Q15.6869,17.922,15.752,17.9414Q15.8171,17.9608,15.8838,17.9739Q15.9505,17.9869,16.0182,17.9935Q16.0859,18,16.1539,18Z" fill-rule="evenodd" fill="#666666" fill-opacity="1"/></g></svg>